<?xml version="1.0" encoding="UTF-8"?>
<svg version="1.1" xmlns="http://www.w3.org/2000/svg" width="300" height="212">
<path d="M0 0 C10.56 0 21.12 0 32 0 C39.30113754 7.85741468 39.30113754 7.85741468 40.6875 11.69921875 C43.32132962 18.13023464 47.18867495 23.63501205 51.0625 29.375 C52.34835039 31.33899034 53.6311316 33.30499517 54.91015625 35.2734375 C56.59591283 37.85672746 58.28890979 40.43336468 60 43 C60.33 28.81 60.66 14.62 61 0 C71.56 0 82.12 0 93 0 C93 33.33 93 66.66 93 101 C82.77 101 72.54 101 62 101 C54.11126961 89.73038516 54.11126961 89.73038516 50.5546875 84.3984375 C50.17692169 83.83226715 49.79915588 83.2660968 49.40994263 82.68276978 C48.6247803 81.50536149 47.8401817 80.32757709 47.05615234 79.14941406 C45.87119486 77.36928364 44.6837601 75.59082395 43.49609375 73.8125 C42.72381026 72.6537445 41.95166989 71.49489361 41.1796875 70.3359375 C40.49632324 69.31032715 39.81295898 68.2847168 39.10888672 67.22802734 C36.6861098 63.51953504 34.34776748 59.75642796 32 56 C31.67 70.85 31.34 85.7 31 101 C20.77 101 10.54 101 0 101 C0 67.67 0 34.34 0 0 Z " fill="#2D2D2D" transform="translate(193,110)"/>
<path d="M0 0 C10.56 0 21.12 0 32 0 C41.06508264 10.25051653 41.06508264 10.25051653 43.078125 14.9296875 C46.0626715 21.35457945 49.86242469 26.99380245 53.875 32.8125 C55.89625 35.844375 57.9175 38.87625 60 42 C60.33 28.14 60.66 14.28 61 0 C71.23 0 81.46 0 92 0 C92 33 92 66 92 100 C82.1 100 72.2 100 62 100 C57.35255773 93.60976688 52.75735164 87.28496339 48.40625 80.70703125 C47.98182617 80.06938843 47.55740234 79.43174561 47.12011719 78.77478027 C45.57750015 76.45573297 44.03896522 74.13397233 42.5 71.8125 C39.035 66.594375 35.57 61.37625 32 56 C31.67 70.52 31.34 85.04 31 100 C20.77 100 10.54 100 0 100 C0 67 0 34 0 0 Z " fill="#2D2D2D" transform="translate(104,0)"/>
<path d="M0 0 C11.37109739 8.61502082 17.88517747 20.54572117 20.00390625 34.63671875 C21.67507107 50.49819343 18.20155853 64.95346627 8.24609375 77.62890625 C0.32721551 86.26413039 -11.40067874 93.10042525 -23.25170898 94.06152344 C-42.02801417 94.79862553 -57.45389001 93.71248496 -72.0390625 80.625 C-83.04423079 69.30749805 -86.98882652 55.51338275 -86.93212891 40.14086914 C-86.69078038 28.69674178 -83.12553686 19.17853286 -76.56640625 9.84375 C-76.12683594 9.20824219 -75.68726562 8.57273437 -75.234375 7.91796875 C-58.23641121 -14.17448562 -21.47237747 -14.70966932 0 0 Z M-47.37890625 23.53125 C-53.25815553 32.43411319 -54.14707504 41.89139307 -52.0625 52.37890625 C-50.03875203 58.38076451 -46.75763274 62.60343312 -41.25390625 65.71875 C-35.56020323 67.45581194 -31.55137529 67.48297732 -25.87890625 65.65625 C-19.67832295 62.26347801 -16.92876682 58.45835958 -14.56640625 51.84375 C-12.52617343 44.61019729 -13.23003414 36.91849475 -15.56640625 29.84375 C-18.50150788 24.65840379 -21.26450697 20.69630529 -26.94140625 18.59375 C-34.91995217 16.94301636 -41.38532811 17.80405311 -47.37890625 23.53125 Z " fill="#2D2D2D" transform="translate(165.56640625,118.15625)"/>
<path d="M0 0 C10.56 0 21.12 0 32 0 C32.05607422 6.4659375 32.05607422 6.4659375 32.11328125 13.0625 C32.1514326 16.51649431 32.19250503 19.97042663 32.2355423 23.42436218 C32.28006016 27.06104397 32.31952401 30.69761435 32.34643555 34.33447266 C32.37259403 37.84250351 32.41308266 41.35011198 32.46318626 44.85787964 C32.48779887 46.83622646 32.49786723 48.81473713 32.50764465 50.79321289 C32.61637337 57.4982701 32.86049959 62.99988537 36 69 C39.85416735 71.53792154 43.60996898 72.26694352 48.1875 71.9375 C52.36508714 70.91022447 54.21717036 70.27391723 57 67 C59.18471361 59.48360221 59.34043266 52.22433077 59.4140625 44.43359375 C59.43342865 43.15895767 59.4527948 41.88432159 59.4727478 40.57106018 C59.52212417 37.21252731 59.56350681 33.85409602 59.60089111 30.49542236 C59.64118336 27.05609689 59.69205775 23.61692821 59.7421875 20.17773438 C59.83945799 13.45188534 59.9192947 6.72614953 60 0 C70.89 0 81.78 0 93 0 C93.04210411 7.99978034 93.08215599 15.99915217 93.10350037 23.99894714 C93.1139996 27.72542125 93.12799656 31.45180227 93.15087891 35.17822266 C93.17283455 38.77682652 93.18461574 42.37534091 93.18975449 45.97400665 C93.1951718 47.99439956 93.21074705 50.01475719 93.22659302 52.03509521 C93.22829794 66.26029289 91.83021508 79.53696124 81.78125 90.40625 C71.4184238 99.67825239 57.53257885 102.40323026 43.96875 102.21484375 C30.76468183 101.25928618 17.15328767 98.29465117 8 88 C2.49860655 80.32600082 -0.26107574 73.23174491 -0.22705078 63.68774414 C-0.22734283 62.99421844 -0.22763489 62.30069275 -0.22793579 61.58615112 C-0.22655474 59.31902059 -0.21105222 57.05222858 -0.1953125 54.78515625 C-0.191578 53.20332519 -0.18873309 51.6214918 -0.18673706 50.03965759 C-0.17913501 45.89518747 -0.15951633 41.7508596 -0.1373291 37.60644531 C-0.1131805 32.62370493 -0.10407335 27.64091673 -0.09242249 22.65813446 C-0.07308964 15.10532432 -0.03474338 7.55282574 0 0 Z " fill="#2D2D2D" transform="translate(0,0)"/>
<path d="M0 0 C25.74 0 51.48 0 78 0 C78 8.58 78 17.16 78 26 C63.15 26 48.3 26 33 26 C33 29.3 33 32.6 33 36 C45.54 36 58.08 36 71 36 C71 44.58 71 53.16 71 62 C58.46 62 45.92 62 33 62 C33 65.63 33 69.26 33 73 C47.85 73 62.7 73 78 73 C78 81.91 78 90.82 78 100 C52.26 100 26.52 100 0 100 C0 67 0 34 0 0 Z " fill="#2D2D2D" transform="translate(208,0)"/>
<path d="M0 0 C25.08 0 50.16 0 76 0 C76 9.24 76 18.48 76 28 C61.81 28 47.62 28 33 28 C33 32.29 33 36.58 33 41 C45.21 41 57.42 41 70 41 C70 50.24 70 59.48 70 69 C57.79 69 45.58 69 33 69 C33 79.56 33 90.12 33 101 C22.11 101 11.22 101 0 101 C0 67.67 0 34.34 0 0 Z " fill="#2D2D2D" transform="translate(2,110)"/>
<path d="M0 0 C2 2 2 2 2.375 5.4375 C2 9 2 9 0.3125 11 C-2.60879364 12.26326211 -4.01798647 12.02016252 -7 11 C-9 9 -9 9 -9.3125 6.0625 C-9 3 -9 3 -7.875 1.125 C-5.15781176 -0.50531294 -3.10347254 -0.33015665 0 0 Z M-7 4 C-6 7 -6 7 -6 7 Z M-1 4 C0 7 0 7 0 7 Z " fill="#2C2C2C" transform="translate(298,199)"/>
</svg>
