<?xml version="1.0" encoding="UTF-8"?>
<svg version="1.1" xmlns="http://www.w3.org/2000/svg" width="757" height="300">
<path d="M0 0 C249.81 0 499.62 0 757 0 C757 99 757 198 757 300 C507.19 300 257.38 300 0 300 C0 201 0 102 0 0 Z " fill="#FEFEFE" transform="translate(0,0)"/>
<path d="M0 0 C13.53 0 27.06 0 41 0 C42.753125 3.3825 44.50625 6.765 46.3125 10.25 C50.52120252 18.3377447 54.79615488 26.38485456 59.1875 34.375 C59.89096558 35.65745605 59.89096558 35.65745605 60.60864258 36.96582031 C62.49123617 40.70696574 62.49123617 40.70696574 65 44 C65.44279297 43.16452637 65.88558594 42.32905273 66.34179688 41.46826172 C68.02444109 38.29486286 69.71006624 35.12305483 71.39648438 31.95166016 C72.11862126 30.59270079 72.84000559 29.2333412 73.56054688 27.87353516 C74.61117851 25.89112826 75.66473754 23.91029856 76.71875 21.9296875 C77.02744019 21.34573212 77.33613037 20.76177673 77.6541748 20.16012573 C81.28699407 13.34773141 85.16362752 6.71365185 89 0 C102.2 0 115.4 0 129 0 C129 31.35 129 62.7 129 95 C120.42 95 111.84 95 103 95 C102.67 73.22 102.34 51.44 102 29 C98.7 35.27 95.4 41.54 92 48 C89.93715311 51.7237776 87.86637468 55.43277508 85.75 59.125 C84.65704348 61.04528353 83.56461686 62.96586873 82.47265625 64.88671875 C81.91336426 65.86946777 81.35407227 66.8522168 80.77783203 67.86474609 C77.55811964 73.54279424 74.37381973 79.24067262 71.1875 84.9375 C70.57036133 86.0404541 69.95322266 87.1434082 69.31738281 88.27978516 C67.8778485 90.85296301 66.43870107 93.4263562 65 96 C62.76522034 93.13951508 60.90847161 90.22126236 59.13671875 87.0546875 C58.5864502 86.07298584 58.03618164 85.09128418 57.46923828 84.07983398 C56.88126465 83.02223877 56.29329102 81.96464355 55.6875 80.875 C55.07374512 79.77422119 54.45999023 78.67344238 53.82763672 77.53930664 C45.0061341 61.66981206 36.18229392 45.77453474 28.21923828 29.45288086 C26.90812909 26.52723616 26.90812909 26.52723616 25 24 C23.14825294 23.84213692 21.2909089 23.74892644 19.43359375 23.68359375 C18.30888672 23.64169922 17.18417969 23.59980469 16.02539062 23.55664062 C14.84138672 23.51732422 13.65738281 23.47800781 12.4375 23.4375 C11.24962891 23.39431641 10.06175781 23.35113281 8.83789062 23.30664062 C5.89207803 23.20016547 2.94605498 23.09954319 0 23 C0 15.41 0 7.82 0 0 Z " fill="#221E1F" transform="translate(33,94)"/>
<path d="M0 0 C9.5887421 -0.09306539 19.17732647 -0.16394904 28.76642323 -0.20724869 C33.22001519 -0.22804024 37.67329602 -0.25620175 42.12670898 -0.30175781 C46.43206996 -0.34551906 50.73713343 -0.36920037 55.04269981 -0.37950897 C56.67760584 -0.38684644 58.31249731 -0.40117348 59.94727516 -0.42292023 C80.66243141 -0.68729041 80.66243141 -0.68729041 88.19343567 5.9262085 C95.74939519 13.81562711 96.50326984 21.27138866 96.4375 31.8125 C96.45748047 32.93720703 96.47746094 34.06191406 96.49804688 35.22070312 C96.49348233 43.07628106 95.66560703 50.66458454 90.4140625 56.87573242 C86.05354735 61.12349948 80.64890128 63.01173325 75 65 C78.50570672 71.7767474 82.6379831 77.80857113 87.25 83.875 C88.50876874 85.53637089 89.76414337 87.20032047 91.015625 88.8671875 C91.56508789 89.59019043 92.11455078 90.31319336 92.68066406 91.05810547 C94 93 94 93 95 96 C68.88601538 99.49620803 68.88601538 99.49620803 61.14013672 93.95361328 C56.46728471 88.79986019 53.29035449 82.88681949 50.31933594 76.63232422 C49.09506695 74.1896765 47.75896437 72.0985958 46.1328125 69.91015625 C44 67 44 67 44 65 C37.73 65 31.46 65 25 65 C25 75.23 25 85.46 25 96 C16.42 96 7.84 96 -1 96 C-1 78.18 -1 60.36 -1 42 C3.47820312 41.96261719 7.95640625 41.92523438 12.5703125 41.88671875 C16.15006368 41.84858929 19.72975427 41.80751665 23.30944824 41.7644577 C27.08323121 41.71986944 30.85690501 41.6804195 34.63085938 41.65356445 C38.2685524 41.62747823 41.90583311 41.58703919 45.54327011 41.53681374 C46.92821991 41.52018077 48.31324098 41.50864428 49.69827652 41.50238609 C51.64418174 41.49270698 53.589955 41.46291844 55.53564453 41.43237305 C56.64150909 41.42126999 57.74737366 41.41016693 58.88674927 41.39872742 C62.47424082 40.93926194 64.91132832 39.85656068 68 38 C69.58770472 34.82459056 69.41100302 31.45809441 69 28 C67.45661909 25.82523599 66.36334727 25.18167363 64 24 C61.93776648 23.87951849 59.87171371 23.82259073 57.80615234 23.79467773 C55.85435562 23.7647599 55.85435562 23.7647599 53.86312866 23.73423767 C52.4373995 23.71725327 51.01166907 23.70037447 49.5859375 23.68359375 C48.13147387 23.66302479 46.67701623 23.64202834 45.2225647 23.62062073 C41.39213912 23.56539396 37.56165955 23.5159874 33.73114014 23.46777344 C29.8233153 23.4175628 25.915569 23.36187446 22.0078125 23.30664062 C14.33860815 23.19905167 6.66933855 23.09760838 -1 23 C-1.12152487 15.26291674 -0.84800767 7.692641 0 0 Z " fill="#221E1F" transform="translate(287,94)"/>
<path d="M0 0 C8.45938959 -0.06829997 16.91855787 -0.12311401 25.37815094 -0.15543652 C29.30803327 -0.1709647 33.23771407 -0.19196166 37.16748047 -0.22631836 C40.97359643 -0.25937843 44.77952097 -0.27694902 48.58576965 -0.28463173 C50.0239411 -0.29009298 51.46210439 -0.30075153 52.90019226 -0.31719017 C66.67813578 -0.46814217 81.1875849 -0.44904696 91.6875 9.5625 C97.22750072 16.65307884 97.45318391 26.53813645 97.3984375 35.15234375 C97.40130768 36.1737294 97.40417786 37.19511505 97.40713501 38.24745178 C97.40916153 40.39112915 97.4037315 42.53482561 97.39111328 44.6784668 C97.37505663 47.92604707 97.39100251 51.17237987 97.41015625 54.41992188 C97.43830633 82.34291996 97.43830633 82.34291996 87.875 92.1875 C80.37183424 96.91775667 72.20605805 97.45097777 63.54296875 97.3984375 C62.47814774 97.40130768 61.41332672 97.40417786 60.3162384 97.40713501 C58.07662419 97.40916464 55.8369918 97.40371243 53.59741211 97.39111328 C50.20710686 97.37509265 46.81800232 97.3909758 43.42773438 97.41015625 C14.05811554 97.4382605 14.05811554 97.4382605 6 90 C0.68193698 82.46607739 -0.32137642 74.29557694 -0.1953125 65.24609375 C-0.1924826 64.45977066 -0.18965271 63.67344757 -0.18673706 62.86329651 C-0.17567289 60.38786641 -0.15059591 57.91281801 -0.125 55.4375 C-0.11495234 53.7441459 -0.10582965 52.05078605 -0.09765625 50.35742188 C-0.07749276 46.23802114 -0.03832028 42.11943037 0 38 C8.58 38 17.16 38 26 38 C26.06058594 40.20300781 26.12117188 42.40601563 26.18359375 44.67578125 C26.24541059 46.81049946 26.30878689 48.94516608 26.37231445 51.07983398 C26.4156133 52.56286015 26.45729199 54.04593454 26.49731445 55.52905273 C26.55513958 57.66144339 26.61879832 59.79359242 26.68359375 61.92578125 C26.72025146 63.20880127 26.75690918 64.49182129 26.79467773 65.8137207 C26.86561234 69.02111551 26.86561234 69.02111551 28 72 C34.06624292 73.44537339 40.20621091 73.18601011 46.40209961 73.18530273 C48.55928056 73.18749673 50.71595571 73.2057026 52.87304688 73.22460938 C54.24999826 73.22754245 55.62695206 73.22952782 57.00390625 73.23046875 C58.87284546 73.23663208 58.87284546 73.23663208 60.77954102 73.24291992 C64.71610612 72.94608836 64.71610612 72.94608836 68 71 C70.42511078 66.83433991 70.3219868 62.47282873 70.3359375 57.77734375 C70.3425943 56.99484756 70.3492511 56.21235138 70.35610962 55.40614319 C70.36620126 53.75800925 70.37092772 52.10983473 70.37060547 50.46166992 C70.3749924 47.94186499 70.4113833 45.42379389 70.44921875 42.90429688 C70.45508497 41.29948513 70.45905567 39.69466511 70.4609375 38.08984375 C70.47530853 37.33871811 70.48967957 36.58759247 70.50448608 35.81370544 C70.47443237 32.37373547 70.27079418 30.37192388 68.22119141 27.55688477 C64.29317718 24.80364815 60.56872221 24.86175011 55.85449219 24.79467773 C54.61350769 24.77473251 53.37252319 24.75478729 52.09393311 24.73423767 C50.744915 24.71725607 49.39589559 24.70037717 48.046875 24.68359375 C46.66253049 24.66301124 45.27819208 24.64201443 43.89385986 24.62062073 C40.257456 24.56553393 36.62099667 24.51606586 32.98449707 24.46777344 C29.27086475 24.41746036 25.55731256 24.36182558 21.84375 24.30664062 C14.56256608 24.19922293 7.28131467 24.09823394 0 24 C0 16.08 0 8.16 0 0 Z " fill="#231F20" transform="translate(176,93)"/>
<path d="M0 0 C8.91 0 17.82 0 27 0 C27.33 10.56 27.66 21.12 28 32 C29.711875 29.875625 31.42375 27.75125 33.1875 25.5625 C33.78699463 24.84642578 34.38648926 24.13035156 35.00415039 23.39257812 C37.96532899 19.81756857 40.41902086 16.377968 42.49609375 12.21875 C45.25360556 7.11486938 47.74380517 2.78487784 53 0 C64.15689989 -2.11487998 75.76146429 -1.04016936 87 0 C85.70234874 2.78454333 84.27315368 5.07241613 82.3125 7.43359375 C81.78382324 8.07570801 81.25514648 8.71782227 80.71044922 9.37939453 C80.14600098 10.05856934 79.58155273 10.73774414 79 11.4375 C74.04815693 17.4608984 69.21015512 23.53967149 64.50390625 29.7578125 C62.69207114 32.13497536 60.81531042 34.44568486 58.90234375 36.7421875 C58.38752441 37.36915527 57.87270508 37.99612305 57.34228516 38.64208984 C56.3451148 39.85314417 55.33613268 41.05459773 54.31396484 42.24462891 C52.3836325 44.60840039 51.05292265 46.3303665 50.80859375 49.421875 C52.64747049 53.40108368 55.39389848 56.45266595 58.25 59.75 C59.53120482 61.26476637 60.80978378 62.78175702 62.0859375 64.30078125 C62.73788086 65.07631348 63.38982422 65.8518457 64.06152344 66.65087891 C67.10202794 70.33548021 69.99379767 74.12780105 72.875 77.9375 C77.06478356 83.47339115 81.30671175 88.94138836 85.70703125 94.3125 C87 96 87 96 87 97 C54.83475323 99.25202034 54.83475323 99.25202034 48.57421875 94.45703125 C45.67607086 91.35336111 43.88781945 87.77982474 42 84 C40.6063119 82.19448334 39.17118689 80.4198193 37.6875 78.6875 C34.3605557 74.52321242 31.2031508 70.27086773 28 66 C27.67 76.23 27.34 86.46 27 97 C18.09 97 9.18 97 0 97 C0 64.99 0 32.98 0 0 Z " fill="#252122" transform="translate(496,93)"/>
<path d="M0 0 C9.24 0 18.48 0 28 0 C31.61282829 11.30166797 35.10627124 22.6306362 38.5 34 C40.97479616 42.28530406 43.45123449 50.56893286 46.0625 58.8125 C46.4020874 59.88479858 46.4020874 59.88479858 46.74853516 60.97875977 C48.19304688 65.51613719 49.66615055 70.04386438 51.14453125 74.5703125 C51.51376709 75.70750732 51.88300293 76.84470215 52.26342773 78.01635742 C52.99085037 80.25518313 53.72324209 82.49240192 54.46118164 84.7277832 C54.79110107 85.74445068 55.12102051 86.76111816 55.4609375 87.80859375 C55.75790527 88.71407959 56.05487305 89.61956543 56.36083984 90.55249023 C57 93 57 93 57 97 C27.3 97 -2.4 97 -33 97 C-31.04210012 89.82103379 -29.02801871 82.75427329 -26.71484375 75.6953125 C-26.41308731 74.76830536 -26.11133087 73.84129822 -25.8004303 72.88619995 C-25.16891573 70.94813558 -24.53612726 69.01048587 -23.90209961 67.07324219 C-22.93337653 64.11239687 -21.96932704 61.1500591 -21.00585938 58.1875 C-20.38829459 56.29418152 -19.77046545 54.40094924 -19.15234375 52.5078125 C-18.86584457 51.62755402 -18.5793454 50.74729553 -18.28416443 49.84036255 C-18.01370804 49.01535248 -17.74325165 48.19034241 -17.46459961 47.34033203 C-17.22938095 46.62072296 -16.99416229 45.90111389 -16.7518158 45.15969849 C-15.9112486 42.7450489 -14.94956148 40.37390371 -14 38 C-6.08 38 1.84 38 10 38 C7.75 49.25 7.75 49.25 6.2734375 54.6640625 C5.9640625 55.80488281 5.6546875 56.94570312 5.3359375 58.12109375 C4.86027344 59.85552734 4.86027344 59.85552734 4.375 61.625 C4.05015625 62.81996094 3.7253125 64.01492187 3.390625 65.24609375 C2.59671751 68.16487128 1.79877456 71.08255067 1 74 C8.92 74 16.84 74 25 74 C23.85402344 70.89980469 22.70804688 67.79960937 21.52734375 64.60546875 C20.3919845 61.53378164 19.25665966 58.46208182 18.12133789 55.39038086 C17.34468096 53.28913065 16.56798943 51.18789324 15.79125977 49.08666992 C15.41735107 48.07515869 15.04344238 47.06364746 14.65820312 46.02148438 C14.28506989 45.01248077 13.91193665 44.00347717 13.52749634 42.96389771 C12.77676818 40.93158257 12.02740081 38.89876426 11.27938843 36.865448 C9.52016565 32.08693829 7.7447528 27.3167643 5.91455078 22.56494141 C5.59112198 21.71555496 5.26769318 20.86616852 4.9344635 19.99104309 C4.3389431 18.42937054 3.73553611 16.87066844 3.12205505 15.31596375 C1.08125864 9.92895702 0.67084448 6.03760028 0 0 Z " fill="#231F20" transform="translate(621,93)"/>
<path d="M0 0 C28.38 0 56.76 0 86 0 C86 7.59 86 15.18 86 23 C66.2 23 46.4 23 26 23 C26 27.29 26 31.58 26 36 C45.8 36 65.6 36 86 36 C86 43.59 86 51.18 86 59 C57.62 59 29.24 59 0 59 C0 39.53 0 20.06 0 0 Z " fill="#211D1E" transform="translate(397,131)"/>
<path d="M0 0 C29.04 0 58.08 0 88 0 C88 7.92 88 15.84 88 24 C58.96 24 29.92 24 0 24 C0 16.08 0 8.16 0 0 Z " fill="#211E1F" transform="translate(396,93)"/>
<path d="M0 0 C14 0 14 0 26 1 C26 20.14 26 39.28 26 59 C17.42 59 8.84 59 0 59 C0 39.53 0 20.06 0 0 Z " fill="#EC1D24" transform="translate(33,131)"/>
<path d="M0 0 C4.20305855 3.20233032 8.24079315 7.23158631 10.625 12 C11.31407285 19.50105012 11.75076241 26.24475477 7.0546875 32.453125 C3.23921957 36.58133621 -0.66428321 39.62260436 -6.29296875 40.40625 C-13.19382599 40.60412404 -17.99121334 40.18584171 -23.49609375 35.81640625 C-28.69693678 30.78856423 -30.66909622 26.83927616 -31 19.5 C-30.69337817 11.93958178 -28.26577621 7.679256 -22.8125 2.625 C-15.79472697 -2.05351535 -8.11386104 -2.40410698 0 0 Z " fill="#F0F0F0" transform="translate(701.375,70)"/>
<path d="M0 0 C2.21798014 3.32697021 3.47644617 6.71044496 4.8203125 10.44140625 C5.08383514 11.16488754 5.34735779 11.88836884 5.61886597 12.6337738 C6.17380132 14.16033501 6.72674528 15.68762141 7.27783203 17.21557617 C8.12378852 19.55914382 8.9774366 21.8998048 9.83203125 24.24023438 C10.37025261 25.72379119 10.90802839 27.20750974 11.4453125 28.69140625 C11.70152374 29.39350723 11.95773499 30.09560822 12.22171021 30.81898499 C14 35.76950938 14 35.76950938 14 38 C6.08 38 -1.84 38 -10 38 C-8.87478227 28.99825818 -8.87478227 28.99825818 -7.9140625 25.6328125 C-7.60082031 24.52099609 -7.60082031 24.52099609 -7.28125 23.38671875 C-7.0646875 22.64035156 -6.848125 21.89398438 -6.625 21.125 C-6.41617188 20.38636719 -6.20734375 19.64773437 -5.9921875 18.88671875 C-4.38705095 13.23937858 -2.68721531 7.62405103 -1 2 C-8.92 2 -16.84 2 -25 2 C-25 1.67 -25 1.34 -25 1 C-20.8761323 0.74598399 -16.75114808 0.52599895 -12.625 0.3125 C-11.449375 0.23966797 -10.27375 0.16683594 -9.0625 0.09179688 C-7.94101562 0.03701172 -6.81953125 -0.01777344 -5.6640625 -0.07421875 C-4.62717285 -0.13182373 -3.5902832 -0.18942871 -2.52197266 -0.2487793 C-1.68972168 -0.16668213 -0.8574707 -0.08458496 0 0 Z " fill="#F5F4F4" transform="translate(632,129)"/>
<path d="M0 0 C4.20305855 3.20233032 8.24079315 7.23158631 10.625 12 C11.31407285 19.50105012 11.75076241 26.24475477 7.0546875 32.453125 C3.23921957 36.58133621 -0.66428321 39.62260436 -6.29296875 40.40625 C-13.19382599 40.60412404 -17.99121334 40.18584171 -23.49609375 35.81640625 C-28.69693678 30.78856423 -30.66909622 26.83927616 -31 19.5 C-30.69337817 11.93958178 -28.26577621 7.679256 -22.8125 2.625 C-15.79472697 -2.05351535 -8.11386104 -2.40410698 0 0 Z M-24.8125 9.75 C-27.48288677 15.30440449 -28.02720581 19.82598063 -26.25 25.75 C-23.06584375 31.26920417 -19.37891347 34.76324792 -13.375 37 C-7.5483195 37.75182974 -4.02989088 36.99584054 0.79296875 33.609375 C4.56715759 30.29388288 7.09760089 26.71167153 8.06640625 21.73046875 C8.35449163 16.27543271 7.0598625 12.23562799 3.625 8 C0.74668476 5.0293324 -2.12415037 2.37507497 -6.375 2 C-8.23125 1.814375 -8.23125 1.814375 -10.125 1.625 C-16.4501212 1.71940479 -20.75424758 5.1714588 -24.8125 9.75 Z " fill="#272626" transform="translate(701.375,70)"/>
<path d="M0 0 C2.3925 -0.0825 4.785 -0.165 7.25 -0.25 C7.99668945 -0.28641602 8.74337891 -0.32283203 9.51269531 -0.36035156 C12.91726945 -0.41712499 14.69581065 -0.22705042 17.44921875 1.828125 C19 4 19 4 19.5625 7 C19 10 19 10 16.5 12.375 C15.675 12.91125 14.85 13.4475 14 14 C14.78375 14.9075 15.5675 15.815 16.375 16.75 C18.30052496 19.05190236 19.82205741 21.21577207 21 24 C18.875 24 18.875 24 16 23 C14.578125 21.22265625 14.578125 21.22265625 13.125 19.0625 C11.04159293 16.02962356 9.71499237 14.47711486 6.125 13.5 C5.09375 13.335 4.0625 13.17 3 13 C3 16.63 3 20.26 3 24 C2.01 24 1.02 24 0 24 C0 16.08 0 8.16 0 0 Z " fill="#201F20" transform="translate(682,77)"/>
<path d="M0 0 C14 0 14 0 26 1 C26 20.14 26 39.28 26 59 C17.42 59 8.84 59 0 59 C0 39.53 0 20.06 0 0 Z M3 2 C1.75073543 4.49852914 1.87303253 6.18927672 1.87060547 8.98461914 C1.86745331 10.02231949 1.86430115 11.06001984 1.86105347 12.12916565 C1.8630777 13.25314255 1.86510193 14.37711945 1.8671875 15.53515625 C1.86623077 16.68414902 1.86527405 17.83314178 1.86428833 19.01695251 C1.86360695 21.44888361 1.86545833 23.88081652 1.86962891 26.31274414 C1.87498257 30.05033419 1.86967996 33.78780432 1.86328125 37.52539062 C1.86394194 39.88281277 1.86522292 42.24023483 1.8671875 44.59765625 C1.86516327 45.72365738 1.86313904 46.84965851 1.86105347 48.00978088 C1.86420563 49.04432907 1.86735779 50.07887726 1.87060547 51.14477539 C1.87140106 52.06029678 1.87219666 52.97581818 1.87301636 53.91908264 C1.76866189 55.98956998 1.76866189 55.98956998 3 57 C4.63472882 57.08700342 6.27314055 57.10701063 7.91015625 57.09765625 C8.89951172 57.09443359 9.88886719 57.09121094 10.90820312 57.08789062 C12.46958008 57.07532227 12.46958008 57.07532227 14.0625 57.0625 C15.10728516 57.05798828 16.15207031 57.05347656 17.22851562 57.04882812 C19.8190666 57.03699913 22.40950559 57.02051689 25 57 C25.02526605 49.32788798 25.04283123 41.6557866 25.05493164 33.98364258 C25.05997377 31.37133381 25.06680725 28.75902789 25.07543945 26.14672852 C25.08751036 22.40119732 25.09322935 18.65570328 25.09765625 14.91015625 C25.10281754 13.73413345 25.10797882 12.55811066 25.11329651 11.34645081 C25.11337204 10.26540573 25.11344757 9.18436066 25.11352539 8.07055664 C25.115746 7.11347305 25.11796661 6.15638947 25.12025452 5.17030334 C25.24312499 3.02082376 25.24312499 3.02082376 24 2 C22.43827255 1.91314397 20.87270656 1.89297781 19.30859375 1.90234375 C18.36435547 1.90556641 17.42011719 1.90878906 16.44726562 1.91210938 C14.95743164 1.92467773 14.95743164 1.92467773 13.4375 1.9375 C12.44041016 1.94201172 11.44332031 1.94652344 10.41601562 1.95117188 C7.94395151 1.96299993 5.47200482 1.97948151 3 2 Z " fill="#B1363B" transform="translate(33,131)"/>
<path d="M0 0 C3.47914941 -0.02887814 6.95826831 -0.04675687 10.4375 -0.0625 C11.92733398 -0.07506836 11.92733398 -0.07506836 13.44726562 -0.08789062 C14.39150391 -0.09111328 15.33574219 -0.09433594 16.30859375 -0.09765625 C17.62041626 -0.10551147 17.62041626 -0.10551147 18.95874023 -0.11352539 C21 0 21 0 22 1 C22.09353163 2.68801985 22.11744791 4.37995207 22.11352539 6.07055664 C22.11344986 7.15160172 22.11337433 8.23264679 22.11329651 9.34645081 C22.10813522 10.5224736 22.10297394 11.6984964 22.09765625 12.91015625 C22.0962413 14.10732773 22.09482635 15.30449921 22.09336853 16.53794861 C22.08774979 20.37949066 22.07519411 24.22097543 22.0625 28.0625 C22.05748741 30.65950437 22.05292409 33.25650965 22.04882812 35.85351562 C22.03777427 42.23569679 22.02101792 48.6178443 22 55 C18.35418313 55.02887512 14.70839537 55.04675585 11.0625 55.0625 C9.50112305 55.07506836 9.50112305 55.07506836 7.90820312 55.08789062 C6.91884766 55.09111328 5.92949219 55.09433594 4.91015625 55.09765625 C3.53549194 55.10551147 3.53549194 55.10551147 2.13305664 55.11352539 C0 55 0 55 -1 54 C-1.09861162 52.38402315 -1.12798763 50.76375762 -1.12939453 49.14477539 C-1.13254669 48.1102272 -1.13569885 47.07567902 -1.13894653 46.00978088 C-1.1369223 44.88377975 -1.13489807 43.75777863 -1.1328125 42.59765625 C-1.13376923 41.44962021 -1.13472595 40.30158417 -1.13571167 39.11875916 C-1.13639374 36.68504787 -1.13453758 34.25133477 -1.13037109 31.81762695 C-1.12502811 28.08215257 -1.13031269 24.34679871 -1.13671875 20.61132812 C-1.13605788 18.2526039 -1.13477653 15.89387975 -1.1328125 13.53515625 C-1.13483673 12.41117935 -1.13686096 11.28720245 -1.13894653 10.12916565 C-1.13421829 8.57261513 -1.13421829 8.57261513 -1.12939453 6.98461914 C-1.12820114 5.61014366 -1.12820114 5.61014366 -1.12698364 4.207901 C-1 2 -1 2 0 0 Z M1 1 C0.01533747 3.95398758 -0.12127836 5.85249022 -0.11352539 8.93041992 C-0.11344986 9.93123093 -0.11337433 10.93204193 -0.11329651 11.96318054 C-0.10813522 13.04138565 -0.10297394 14.11959076 -0.09765625 15.23046875 C-0.0962413 16.33602615 -0.09482635 17.44158356 -0.09336853 18.5806427 C-0.08776514 22.11628917 -0.07521204 25.65187262 -0.0625 29.1875 C-0.05748544 31.58268138 -0.05292246 33.97786375 -0.04882812 36.37304688 C-0.0377946 42.24872225 -0.02052767 48.12435043 0 54 C6.6 54 13.2 54 20 54 C19.99476318 52.4958252 19.98952637 50.99165039 19.98413086 49.44189453 C19.96607165 43.87712191 19.95456459 38.31235188 19.94506836 32.74755859 C19.94003026 30.33609583 19.93319966 27.92463614 19.92456055 25.51318359 C19.91247213 22.05305221 19.90676656 18.5929611 19.90234375 15.1328125 C19.89718246 14.04944611 19.89202118 12.96607971 19.88670349 11.84988403 C19.88659019 10.34855423 19.88659019 10.34855423 19.88647461 8.81689453 C19.884254 7.93309113 19.88203339 7.04928772 19.87974548 6.13870239 C20 4 20 4 21 2 C15.5155733 1.25669086 15.5155733 1.25669086 10 1 C7 1 4 1 1 1 Z " fill="#D8252A" transform="translate(36,133)"/>
<path d="M0 0 C1.79133978 -0.05391993 3.58313899 -0.09275571 5.375 -0.125 C6.37273438 -0.14820312 7.37046875 -0.17140625 8.3984375 -0.1953125 C11 0 11 0 13 2 C12.44444444 6.55555556 12.44444444 6.55555556 11 8 C9.14712498 8.07226502 7.29166122 8.0838122 5.4375 8.0625 C4.42558594 8.05347656 3.41367187 8.04445313 2.37109375 8.03515625 C1.58863281 8.02355469 0.80617188 8.01195313 0 8 C0 5.36 0 2.72 0 0 Z " fill="#E9E8E8" transform="translate(685,80)"/>
<path d="M0 0 C0.2475 0.53625 0.495 1.0725 0.75 1.625 C4.22733289 8.23193249 7.17846972 11.18529091 14 14 C13.67 15.32 13.34 16.64 13 18 C6.40763434 16.27342804 2.05338115 13.10694702 -1.375 7.3125 C-3 4 -3 4 -3 2 C-2.01 1.34 -1.02 0.68 0 0 Z " fill="#2E2C2D" transform="translate(674,92)"/>
<path d="M0 0 C3.21043882 1.38188453 5.04936365 2.92421903 7.25 5.625 C7.77078125 6.25664063 8.2915625 6.88828125 8.828125 7.5390625 C9.40820312 8.26222656 9.40820312 8.26222656 10 9 C9.01 9.495 9.01 9.495 8 10 C7.67 10.66 7.34 11.32 7 12 C6.59007812 11.51789063 6.18015625 11.03578125 5.7578125 10.5390625 C5.21898437 9.90742187 4.68015625 9.27578125 4.125 8.625 C3.59132813 7.99851562 3.05765625 7.37203125 2.5078125 6.7265625 C1.38567993 5.44163349 0.20628025 4.20628025 -1 3 C-0.67 2.01 -0.34 1.02 0 0 Z " fill="#2F2F2F" transform="translate(701,71)"/>
<path d="M0 0 C2.4178712 -0.10826289 4.83087556 -0.18739789 7.25 -0.25 C8.27287109 -0.30027344 8.27287109 -0.30027344 9.31640625 -0.3515625 C12.92181813 -0.4215705 14.64068812 -0.29151719 17.484375 2.015625 C17.98453125 2.67046875 18.4846875 3.3253125 19 4 C14.99799622 5.60080151 11.95443764 4.29279692 8 3 C8 2.34 8 1.68 8 1 C5.36 1 2.72 1 0 1 C0 0.67 0 0.34 0 0 Z " fill="#474747" transform="translate(682,77)"/>
<path d="M0 0 C2 3 2 3 2 5 C0.02 5.99 0.02 5.99 -2 7 C-1.67 5.35 -1.34 3.7 -1 2 C-8.92 2 -16.84 2 -25 2 C-25 1.67 -25 1.34 -25 1 C-20.8761323 0.74598399 -16.75114808 0.52599895 -12.625 0.3125 C-11.449375 0.23966797 -10.27375 0.16683594 -9.0625 0.09179688 C-7.94101562 0.03701172 -6.81953125 -0.01777344 -5.6640625 -0.07421875 C-4.62717285 -0.13182373 -3.5902832 -0.18942871 -2.52197266 -0.2487793 C-1.68972168 -0.16668213 -0.8574707 -0.08458496 0 0 Z " fill="#C5C3C4" transform="translate(632,129)"/>
<path d="M0 0 C4.07763771 2.86536704 6.02677065 5.43041625 8 10 C5.8125 10 5.8125 10 3 9 C1.03811466 6.49196821 -0.49921743 3.80358957 -2 1 C-1.34 0.67 -0.68 0.34 0 0 Z " fill="#2D2C2C" transform="translate(695,91)"/>
<path d="M0 0 C0.39832031 0.50144531 0.79664063 1.00289063 1.20703125 1.51953125 C0.20703125 2.51953125 0.20703125 2.51953125 -2.296875 2.6171875 C-3.81087891 2.59978516 -3.81087891 2.59978516 -5.35546875 2.58203125 C-6.36738281 2.57300781 -7.37929688 2.56398438 -8.421875 2.5546875 C-9.20433594 2.54308594 -9.98679687 2.53148438 -10.79296875 2.51953125 C-10.79296875 1.52953125 -10.79296875 0.53953125 -10.79296875 -0.48046875 C-9.35886507 -0.7300088 -7.92036803 -0.95439517 -6.48046875 -1.16796875 C-5.67996094 -1.29558594 -4.87945313 -1.42320313 -4.0546875 -1.5546875 C-1.79296875 -1.48046875 -1.79296875 -1.48046875 0 0 Z " fill="#242223" transform="translate(697.79296875,107.48046875)"/>
<path d="M0 0 C0.33 0 0.66 0 1 0 C1 3.3 1 6.6 1 10 C0.01 10.33 -0.98 10.66 -2 11 C-2.05399736 9.54207116 -2.09279177 8.08357288 -2.125 6.625 C-2.15980469 5.40683594 -2.15980469 5.40683594 -2.1953125 4.1640625 C-2 2 -2 2 0 0 Z " fill="#1F1E1E" transform="translate(673,83)"/>
<path d="M0 0 C0.66 0.33 1.32 0.66 2 1 C1.5020163 4.73487777 1.12508244 6.81237635 -1 10 C-1.33 9.34 -1.66 8.68 -2 8 C-2.99 8.495 -2.99 8.495 -4 9 C-2.94124926 5.59687262 -1.99097846 2.98646769 0 0 Z " fill="#313031" transform="translate(675,76)"/>
<path d="M0 0 C1.20628008 2.33214148 2.1654738 4.49642139 3 7 C1.68 7.33 0.36 7.66 -1 8 C-1.66 6.02 -2.32 4.04 -3 2 C-2.01 1.34 -1.02 0.68 0 0 Z " fill="#343233" transform="translate(674,92)"/>
<path d="M0 0 C0.33 0 0.66 0 1 0 C1 4.62 1 9.24 1 14 C0.67 14 0.34 14 0 14 C-0.33 11.36 -0.66 8.72 -1 6 C-1.99 6.495 -1.99 6.495 -3 7 C-1.125 1.125 -1.125 1.125 0 0 Z " fill="#D7D4D5" transform="translate(135,122)"/>
<path d="M0 0 C0.763125 0.20625 1.52625 0.4125 2.3125 0.625 C0.26016315 2.8727975 -0.69417261 3.6272242 -3.6875 4.625 C-4.3475 3.635 -5.0075 2.645 -5.6875 1.625 C-2.6875 -0.375 -2.6875 -0.375 0 0 Z " fill="#2F2D2E" transform="translate(702.6875,104.375)"/>
</svg>
