<?xml version="1.0" standalone="no"?>
<!DOCTYPE svg PUBLIC "-//W3C//DTD SVG 20010904//EN"
 "http://www.w3.org/TR/2001/REC-SVG-20010904/DTD/svg10.dtd">
<svg version="1.0" xmlns="http://www.w3.org/2000/svg"
 width="920.000000pt" height="328.000000pt" viewBox="0 0 920.000000 328.000000"
 preserveAspectRatio="xMidYMid meet">

<g transform="translate(0.000000,328.000000) scale(0.100000,-0.100000)"
fill="#000000" stroke="none">
<path d="M6295 3133 c-1497 -72 -3084 -383 -4370 -856 -182 -67 -338 -128
-347 -136 -4 -3 46 -6 110 -6 100 -1 125 -4 170 -24 92 -41 132 -107 132 -218
l0 -53 -120 0 -120 0 0 49 c0 42 -4 53 -26 70 -60 47 -144 10 -144 -63 0 -50
43 -88 178 -161 62 -33 135 -80 164 -104 68 -60 88 -105 88 -205 0 -95 -13
-143 -52 -191 -79 -95 -277 -130 -451 -78 -36 10 -65 29 -102 66 -57 58 -75
105 -75 201 l0 56 130 0 c71 0 129 -3 129 -7 -6 -34 4 -123 14 -137 16 -22 73
-35 110 -25 40 11 56 36 57 88 0 38 -5 49 -38 80 -21 20 -88 64 -149 98 -129
73 -199 132 -224 188 -37 81 -18 225 38 288 16 17 15 17 -23 1 -90 -37 -439
-219 -564 -294 -383 -231 -629 -461 -720 -675 -22 -52 -25 -74 -25 -175 0
-112 1 -117 34 -178 150 -275 639 -471 1391 -556 308 -35 449 -41 940 -41 581
1 872 17 1440 81 1159 130 2390 409 3338 755 111 41 463 178 469 183 1 0 -44
1 -100 1 -161 0 -261 46 -308 142 -24 47 -24 53 -24 338 0 332 4 354 79 423
60 55 128 76 251 76 217 1 322 -78 333 -251 l5 -73 -122 0 -121 0 0 49 c0 72
-30 104 -95 104 -40 0 -52 -4 -72 -27 -23 -27 -23 -29 -23 -291 l0 -264 24
-28 c33 -38 102 -40 140 -4 24 23 26 30 26 118 l0 93 -45 0 -45 0 0 70 0 70
165 0 165 0 0 -172 c0 -152 -3 -178 -21 -218 -11 -25 -30 -56 -42 -69 -31 -34
406 188 576 293 361 222 607 459 688 663 19 47 23 77 24 163 0 95 -3 110 -28
163 -117 237 -477 415 -1052 522 -176 32 -515 71 -748 85 -156 9 -846 11
-1012 3z m-1411 -1017 c103 -31 155 -101 159 -214 l2 -67 -117 -3 -118 -3 0
46 c0 59 -12 80 -52 94 -39 14 -93 -1 -108 -29 -17 -32 -11 -77 14 -107 13
-16 73 -55 132 -87 144 -77 207 -126 241 -184 25 -42 28 -57 28 -132 -1 -101
-16 -149 -61 -200 -53 -59 -120 -82 -246 -88 -89 -4 -118 -1 -177 17 -127 39
-191 128 -191 268 l0 53 128 0 127 0 1 -61 c0 -55 4 -65 28 -85 63 -55 156
-16 156 66 0 55 -44 97 -199 185 -182 103 -231 165 -231 290 0 75 17 122 62
171 62 67 161 97 299 88 42 -2 98 -11 123 -18z m-2120 -33 c11 -56 166 -902
166 -908 0 -3 -57 -4 -127 -3 l-127 3 -42 285 c-23 157 -51 345 -60 418 -10
72 -22 132 -26 132 -5 0 -8 -10 -8 -23 0 -30 -117 -808 -123 -813 -2 -3 -60
-3 -128 -2 l-125 3 87 465 c48 256 88 466 88 468 1 1 95 2 210 2 l209 0 6 -27z
m815 -316 c30 -188 57 -348 61 -355 3 -7 12 27 19 75 15 109 89 570 96 601 5
22 7 22 194 22 l189 0 5 -32 c3 -18 9 -230 13 -470 l7 -438 -115 0 -115 0 -6
233 c-4 127 -7 315 -8 417 -1 102 -3 178 -5 170 -2 -8 -35 -186 -74 -395 -38
-209 -72 -390 -75 -402 -5 -22 -9 -23 -124 -23 l-119 0 -10 48 c-6 26 -41 215
-79 421 l-68 373 -6 -418 c-3 -231 -6 -420 -7 -421 -1 -2 -54 -3 -118 -3
l-116 0 7 393 c4 215 8 410 10 432 2 22 4 57 4 78 l1 37 193 0 192 0 54 -343z
m1941 -14 c0 -321 2 -362 18 -393 20 -41 69 -59 115 -41 54 21 57 45 57 436
l0 355 121 0 120 0 -3 -387 c-3 -383 -3 -389 -26 -436 -50 -100 -140 -141
-307 -141 -167 0 -257 41 -307 141 -23 47 -23 53 -26 436 l-4 387 121 0 121 0
0 -357z m1055 300 c85 -293 196 -667 198 -670 3 -3 2 79 -6 550 l-4 177 119 0
118 0 0 -465 0 -465 -169 0 -170 0 -15 53 c-9 28 -61 198 -116 377 l-101 325
6 -377 6 -378 -116 0 -115 0 0 465 0 465 174 0 175 0 16 -57z"/>
</g>
</svg>
