<?xml version="1.0" standalone="no"?>
<!DOCTYPE svg PUBLIC "-//W3C//DTD SVG 20010904//EN"
 "http://www.w3.org/TR/2001/REC-SVG-20010904/DTD/svg10.dtd">
<svg version="1.0" xmlns="http://www.w3.org/2000/svg"
 width="1200.000000pt" height="630.000000pt" viewBox="0 0 1200.000000 630.000000"
 preserveAspectRatio="xMidYMid meet">

<g transform="translate(0.000000,630.000000) scale(0.100000,-0.100000)"
fill="#000000" stroke="none">
<path d="M5920 5638 c-14 -34 -35 -81 -47 -105 -13 -24 -23 -49 -23 -54 0 -6
-18 -48 -40 -95 -22 -47 -40 -89 -40 -94 0 -5 -16 -41 -36 -80 -19 -39 -41
-89 -49 -111 -8 -22 -21 -50 -30 -62 -8 -12 -15 -31 -15 -42 0 -11 -6 -29 -14
-40 -7 -11 -28 -54 -45 -95 -18 -41 -45 -102 -61 -135 -15 -33 -31 -71 -35
-85 -5 -14 -21 -50 -36 -81 -16 -31 -29 -62 -29 -68 0 -27 -67 -32 -495 -37
-242 -3 -462 -9 -490 -14 -27 -5 -119 -12 -204 -14 -84 -2 -158 -9 -163 -14
-5 -5 -8 -18 -6 -28 3 -17 18 -20 153 -25 83 -4 231 -12 330 -18 99 -7 266
-16 370 -22 105 -5 237 -13 295 -17 119 -8 125 -13 91 -80 -11 -22 -27 -57
-35 -79 -15 -42 -129 -307 -169 -393 -14 -30 -39 -86 -55 -125 -17 -38 -49
-111 -71 -161 -23 -50 -41 -96 -41 -102 0 -6 -13 -35 -28 -64 -16 -29 -34 -69
-42 -88 -16 -42 -34 -84 -94 -214 -25 -54 -46 -102 -46 -108 0 -5 -18 -48 -41
-96 -90 -191 -99 -210 -99 -216 0 -3 -18 -44 -40 -91 -22 -47 -40 -89 -40 -93
0 -4 -16 -38 -35 -76 -38 -75 -44 -113 -19 -123 28 -10 297 34 499 83 61 14
137 32 170 39 96 21 391 102 515 141 25 8 88 29 140 45 52 17 109 37 125 44
17 8 77 29 135 47 87 27 99 34 72 36 -20 2 -52 -6 -80 -19 -26 -13 -54 -24
-62 -24 -8 -1 -30 -2 -47 -3 -22 -1 -33 -7 -33 -17 0 -8 -6 -15 -12 -15 -33
-1 -94 -13 -98 -19 -10 -14 -65 -31 -107 -33 -24 -2 -45 -9 -48 -16 -5 -14
-55 -17 -55 -2 0 13 -27 13 -32 0 -2 -6 -8 -6 -18 0 -13 8 -12 10 3 10 9 0 17
5 17 10 0 6 7 10 15 10 8 0 15 -4 15 -10 0 -13 37 -13 45 -1 3 5 -4 12 -15 16
-11 3 -20 11 -20 16 0 6 4 8 9 4 5 -3 12 -1 15 4 3 5 -4 11 -17 15 -31 8 -49
7 -43 -2 9 -15 -9 -29 -56 -45 -31 -10 -48 -12 -50 -5 -3 8 -10 7 -25 0 -16
-9 -24 -8 -33 3 -15 18 -3 40 14 26 9 -8 18 -6 32 4 25 19 40 19 24 0 -10 -13
-9 -15 9 -15 11 0 21 6 21 13 0 8 4 7 10 -3 8 -13 10 -12 10 3 0 9 5 17 10 17
6 0 10 3 10 8 0 4 -32 7 -70 7 -52 0 -73 -4 -80 -15 -7 -11 -10 -12 -10 -2 0
10 -3 10 -15 -2 -8 -8 -15 -19 -15 -24 0 -5 -7 -9 -15 -9 -18 0 -20 13 -2 20
9 4 9 6 -1 6 -7 1 -10 6 -7 11 3 6 1 10 -4 10 -6 0 -11 -10 -11 -22 0 -20 -6
-23 -47 -26 -29 -1 -50 2 -54 10 -13 20 1 29 19 12 9 -9 18 -12 19 -7 2 6 15
8 28 5 14 -2 25 0 25 7 0 5 -7 8 -15 5 -8 -4 -15 -2 -15 3 0 4 -24 9 -52 11
-37 1 -49 -1 -38 -8 13 -8 13 -10 -1 -10 -9 0 -22 -7 -29 -15 -14 -17 -90 -21
-90 -5 0 6 4 10 8 10 5 0 9 7 9 15 0 17 -54 14 -84 -5 -15 -9 -15 -11 -1 -6 9
2 19 -1 21 -8 3 -8 -5 -12 -23 -12 -21 0 -26 4 -22 14 4 11 1 13 -8 7 -10 -6
-12 -4 -6 10 6 16 4 16 -10 4 -10 -8 -12 -15 -5 -17 18 -6 12 -22 -9 -22 -13
0 -18 5 -13 15 3 10 0 15 -8 13 -8 -2 -13 3 -11 10 1 9 -2 11 -10 6 -18 -11
-48 -12 -54 -2 -9 14 -24 9 -24 -8 0 -12 7 -15 25 -12 14 3 25 2 25 -2 0 -5
10 -6 23 -3 13 4 18 2 14 -3 -11 -12 -167 -14 -167 -3 0 5 5 9 10 9 6 0 10 4
10 10 0 5 -6 7 -14 4 -8 -3 -16 3 -19 16 -3 12 -10 19 -15 16 -6 -3 -8 -15 -5
-26 3 -11 9 -17 14 -14 5 3 9 -2 9 -10 0 -28 -22 -28 -49 -1 -17 19 -20 26 -9
22 14 -5 17 1 16 41 0 31 8 66 26 104 14 31 26 63 26 70 0 7 9 27 20 43 11 17
20 41 20 53 0 13 9 35 20 49 11 14 20 34 20 43 0 10 7 23 15 30 8 7 17 28 21
49 6 34 17 60 106 251 51 110 54 118 72 163 8 20 20 37 25 37 6 0 11 7 11 16
0 28 55 133 70 134 10 1 11 3 2 7 -9 3 -6 13 9 34 12 18 19 38 16 50 -4 15 -2
19 8 15 7 -2 16 2 19 10 3 8 17 14 31 14 30 0 33 16 4 23 -30 8 -15 25 17 19
20 -4 25 -9 20 -26 -5 -19 -4 -20 8 -3 7 9 16 17 19 17 3 0 8 -8 10 -17 4 -17
5 -17 6 0 1 13 10 17 47 17 36 0 45 -3 41 -14 -7 -18 17 -27 58 -21 17 2 40 4
52 4 17 1 25 10 34 44 7 23 20 51 29 62 9 11 22 39 29 63 6 23 15 42 20 42 4
0 13 23 20 50 7 28 16 50 20 50 4 0 14 19 21 43 12 36 34 87 59 136 9 18 67
22 176 11 50 -5 155 -12 235 -15 208 -9 507 -41 640 -68 14 -3 59 -11 100 -17
189 -30 320 -61 480 -112 152 -50 243 -103 286 -168 25 -37 25 -39 9 -70 -23
-44 -89 -108 -161 -157 -62 -42 -193 -123 -200 -123 -2 0 -27 -14 -56 -31 -92
-55 -430 -223 -503 -251 -38 -14 -97 -34 -130 -44 -33 -9 -67 -21 -75 -26 -8
-4 -44 -18 -80 -31 -36 -13 -130 -47 -210 -76 -80 -29 -167 -61 -194 -72 -27
-10 -55 -19 -62 -19 -7 0 -28 -6 -46 -14 -54 -24 -302 -97 -548 -161 -74 -20
-152 -40 -172 -46 -44 -11 -50 -36 -12 -45 18 -5 34 0 52 13 15 11 52 23 85
27 32 3 69 13 82 22 13 8 45 17 71 20 27 2 55 11 64 19 8 7 44 18 79 24 36 6
67 15 71 21 6 10 100 31 111 24 3 -2 14 5 24 16 11 12 31 20 49 20 17 0 54 12
81 25 28 14 60 25 73 25 12 0 40 9 62 20 22 11 50 20 63 20 13 0 34 9 46 19
12 11 40 22 62 26 21 4 41 10 44 14 2 5 26 14 52 21 27 8 59 22 72 32 13 10
37 18 53 18 16 0 41 9 56 19 15 10 49 22 75 25 27 3 58 13 70 21 12 8 28 15
36 15 8 0 54 20 103 45 49 25 95 45 103 45 8 0 15 4 15 9 0 5 17 15 38 21 20
7 44 18 52 24 28 22 122 66 141 66 11 0 22 7 25 15 3 8 16 17 27 21 12 4 33
15 46 25 13 11 30 19 37 19 12 0 65 32 109 65 11 9 30 18 43 21 12 4 22 12 22
20 0 8 6 14 13 14 8 0 27 11 43 25 16 14 32 25 37 25 13 0 67 53 67 67 0 19
18 16 23 -4 3 -11 5 -7 6 10 0 16 5 26 11 22 5 -3 7 -12 4 -20 -5 -12 -1 -12
19 -2 14 6 23 15 21 19 -3 5 0 8 5 8 6 0 11 -4 11 -8 0 -4 9 -8 19 -9 13 -1
21 6 24 20 4 22 4 22 6 0 1 -27 18 -31 23 -6 2 9 13 17 26 18 22 2 23 -1 17
-42 -7 -46 -2 -52 22 -27 10 10 18 40 21 84 3 56 0 77 -17 113 -22 45 -106
139 -135 150 -23 9 -20 25 6 29 32 4 -182 108 -302 147 -164 52 -394 105 -535
122 -38 5 -99 13 -135 19 -36 6 -150 15 -255 20 -104 6 -232 17 -282 25 -51 8
-132 15 -180 15 -116 1 -224 15 -234 32 -14 21 -10 54 9 79 10 13 24 43 31 67
6 23 16 42 20 42 5 0 11 18 15 40 3 22 16 50 27 61 14 14 22 36 23 61 2 27 9
43 24 54 15 10 22 26 22 47 0 34 12 60 26 57 5 0 10 7 12 17 9 54 14 67 22 54
5 -9 11 -2 20 23 7 21 9 40 6 43 -4 4 6 19 20 34 15 15 27 39 27 53 0 14 3 26
8 26 5 0 16 11 25 25 12 18 13 29 6 38 -13 15 -6 27 28 50 22 16 88 17 807 17
541 0 784 3 788 11 4 5 8 80 8 165 l2 154 -925 0 -925 0 -25 -62z m1677 -1474
c-3 -3 -12 -4 -19 -1 -8 3 -5 6 6 6 11 1 17 -2 13 -5z m83 -34 c8 -5 12 -12 9
-15 -8 -8 -39 5 -39 16 0 11 11 11 30 -1z m-2340 -304 c0 -2 -13 -6 -30 -8
-16 -3 -30 -1 -30 4 0 4 14 8 30 8 17 0 30 -2 30 -4z m150 -28 c0 -5 -4 -8
-10 -8 -5 0 -10 10 -10 23 0 18 2 19 10 7 5 -8 10 -18 10 -22z m2370 28 c0 -3
-4 -8 -10 -11 -5 -3 -10 -1 -10 4 0 6 5 11 10 11 6 0 10 -2 10 -4z m-2836
-1300 c-3 -9 -10 -13 -15 -10 -5 3 -3 11 4 19 15 16 19 13 11 -9z m146 -4 c0
-4 -9 -8 -20 -9 -11 -1 -18 2 -15 8 7 11 35 12 35 1z m175 -2 c3 -5 1 -10 -4
-10 -6 0 -11 5 -11 10 0 6 2 10 4 10 3 0 8 -4 11 -10z m133 -59 c10 -6 7 -12
-12 -24 -14 -10 -28 -17 -31 -17 -9 0 -5 21 8 35 14 17 18 17 35 6z m-138 -47
c0 -2 -7 -4 -15 -4 -8 0 -15 4 -15 10 0 5 7 7 15 4 8 -4 15 -8 15 -10z"/>
<path d="M5170 3730 c0 -5 7 -10 15 -10 8 0 15 5 15 10 0 6 -7 10 -15 10 -8 0
-15 -4 -15 -10z"/>
<path d="M6780 2899 c0 -5 5 -7 10 -4 6 3 10 8 10 11 0 2 -4 4 -10 4 -5 0 -10
-5 -10 -11z"/>
<path d="M6615 2830 l-30 -8 27 -1 c15 0 30 4 33 9 3 6 5 9 3 9 -2 -1 -16 -5
-33 -9z"/>
<path d="M6508 2783 c6 -2 18 -2 25 0 6 3 1 5 -13 5 -14 0 -19 -2 -12 -5z"/>
<path d="M6408 2743 c7 -3 16 -2 19 1 4 3 -2 6 -13 5 -11 0 -14 -3 -6 -6z"/>
<path d="M6354 2726 c-10 -8 -17 -17 -14 -19 3 -3 16 3 30 13 29 22 14 27 -16
6z"/>
<path d="M6278 2703 c-16 -2 -28 -9 -28 -14 0 -5 -7 -9 -15 -9 -8 0 -15 -4
-15 -10 0 -13 1 -13 54 10 40 17 62 33 39 29 -5 -1 -20 -4 -35 -6z"/>
<path d="M6163 2660 c-13 -5 -23 -12 -23 -15 0 -11 37 -4 56 10 22 17 4 20
-33 5z"/>
<path d="M5915 2610 c-3 -5 -1 -10 4 -10 6 0 11 5 11 10 0 6 -2 10 -4 10 -3 0
-8 -4 -11 -10z"/>
<path d="M5790 2580 c0 -5 7 -10 16 -10 8 0 12 5 9 10 -3 6 -10 10 -16 10 -5
0 -9 -4 -9 -10z"/>
<path d="M4731 2548 c-1 -22 11 -29 29 -18 13 8 13 11 1 22 -10 10 -12 10 -7
1 4 -7 3 -13 -3 -13 -5 0 -12 6 -14 13 -3 7 -6 6 -6 -5z"/>
<path d="M5096 2545 c-10 -8 -24 -12 -30 -8 -8 4 -8 2 -1 -5 13 -15 55 -4 55
14 0 17 0 17 -24 -1z"/>
<path d="M5690 2541 c0 -5 5 -13 10 -16 6 -3 10 -2 10 4 0 5 -4 13 -10 16 -5
3 -10 2 -10 -4z"/>
<path d="M5621 2524 c0 -11 3 -14 6 -6 3 7 2 16 -1 19 -3 4 -6 -2 -5 -13z"/>
<path d="M5650 2524 c0 -17 22 -14 28 4 2 7 -3 12 -12 12 -9 0 -16 -7 -16 -16z"/>
<path d="M9675 2313 c-22 -2 -47 -10 -55 -17 -8 -8 -27 -16 -42 -20 -38 -9
-151 -122 -184 -185 -27 -51 -29 -62 -29 -171 0 -108 2 -121 28 -171 46 -92
118 -159 220 -206 40 -19 67 -23 142 -23 84 0 99 3 155 31 95 47 187 148 210
232 7 26 17 50 21 53 5 3 9 38 9 79 0 41 -4 76 -9 79 -4 3 -14 27 -21 53 -8
27 -23 61 -34 77 -45 62 -128 137 -178 160 -55 25 -157 37 -233 29z m223 -73
c50 -25 102 -72 159 -143 7 -8 21 -52 32 -98 l20 -83 -21 -80 c-16 -62 -29
-89 -54 -116 -19 -19 -34 -39 -34 -45 0 -16 -46 -48 -115 -81 -125 -59 -281
-27 -387 81 -26 26 -50 57 -54 69 -3 12 -13 29 -22 38 -10 12 -16 48 -20 113
-4 84 -2 103 19 156 30 75 98 148 176 188 51 26 69 29 150 30 84 1 98 -2 151
-29z"/>
<path d="M9587 2132 c-23 -5 -21 -24 5 -57 19 -25 21 -37 19 -158 -2 -110 -5
-134 -21 -154 -32 -41 -17 -53 64 -53 40 0 75 3 79 6 9 10 -4 34 -19 34 -30 0
-47 47 -40 108 4 31 7 62 6 67 -1 6 -3 44 -3 85 l-2 75 40 6 c31 5 47 2 73
-13 40 -24 48 -52 27 -101 -15 -36 -17 -37 -64 -37 -41 0 -50 -3 -54 -21 -7
-28 1 -49 18 -43 23 9 53 -15 95 -76 51 -76 76 -92 132 -88 35 2 43 7 43 22 0
13 -9 22 -27 27 -30 8 -62 36 -107 92 -33 42 -32 59 4 75 13 6 24 19 24 29 0
10 3 32 7 49 3 18 1 41 -5 52 -9 17 -8 23 5 30 19 11 14 14 -41 33 -36 12
-213 19 -258 11z"/>
<path d="M5880 1609 c-36 -5 -98 -22 -138 -38 -228 -94 -363 -279 -387 -529
-14 -147 54 -291 175 -367 71 -45 179 -75 268 -75 44 0 93 5 109 11 15 6 60
19 98 29 163 42 199 64 200 121 1 22 6 44 13 47 12 8 34 91 26 104 -9 14 7 54
25 63 46 26 69 34 104 40 30 5 37 10 37 29 0 13 -7 27 -16 30 -28 11 -444 7
-465 -4 -40 -22 -18 -49 51 -64 14 -3 32 -17 41 -31 14 -25 14 -34 -7 -128
-18 -85 -26 -105 -50 -124 -81 -65 -240 -52 -292 24 -9 14 -26 34 -36 46 -17
18 -19 38 -20 219 -1 195 -1 199 21 216 19 14 22 23 16 55 -5 33 -3 39 16 44
16 4 21 13 21 39 0 22 5 34 14 34 8 0 38 24 69 53 60 59 142 97 208 97 51 0
137 -35 167 -68 34 -36 82 -141 82 -178 0 -39 21 -67 46 -62 17 3 19 11 16 65
-3 52 -1 65 17 84 14 15 19 30 15 43 -4 12 -7 26 -7 31 0 42 6 65 23 85 15 17
17 26 9 36 -8 10 -18 9 -51 -8 -36 -19 -44 -20 -72 -9 -94 39 -233 55 -346 40z"/>
<path d="M2058 1589 c-14 -9 -6 -50 12 -60 8 -4 28 -10 43 -14 43 -9 53 -43
34 -107 -9 -29 -23 -84 -32 -123 -8 -38 -24 -108 -35 -155 -11 -47 -29 -125
-40 -175 -10 -49 -23 -103 -29 -120 -5 -16 -12 -46 -15 -66 -5 -28 -14 -40
-45 -57 -21 -12 -50 -22 -64 -22 -14 0 -32 -3 -41 -6 -21 -8 -21 -40 0 -48 23
-9 837 -7 850 2 17 11 34 71 34 119 0 29 5 45 15 49 8 3 22 31 32 61 14 46 15
56 3 63 -20 12 -47 -5 -74 -49 -14 -21 -49 -65 -80 -98 -65 -70 -104 -83 -249
-83 -122 0 -149 16 -155 90 -3 38 0 51 11 56 21 8 30 47 31 124 1 57 5 69 30
95 26 28 33 30 101 30 68 0 76 -2 104 -29 24 -23 31 -39 31 -66 0 -42 21 -76
42 -67 17 6 28 58 28 138 0 40 5 63 19 81 11 13 19 35 19 48 0 33 8 63 23 89
11 16 11 23 1 33 -15 15 -44 -10 -74 -63 -32 -58 -69 -79 -151 -88 -70 -8
-112 0 -129 23 -9 13 8 52 21 48 6 -1 11 6 12 15 4 149 7 166 22 175 10 5 17
21 17 38 0 19 7 33 19 40 11 5 77 10 147 10 l127 0 38 -39 c20 -22 40 -55 44
-73 10 -43 22 -58 51 -58 25 0 32 14 13 26 -12 7 -3 73 12 89 5 5 9 26 9 46 0
21 7 42 15 49 38 31 -2 35 -396 35 -215 0 -395 -3 -401 -6z"/>
<path d="M3048 1583 c-23 -28 -3 -52 57 -70 25 -7 31 -14 33 -42 3 -31 -20
-147 -65 -326 -17 -65 -44 -187 -68 -303 -8 -40 -20 -82 -25 -93 -16 -28 -52
-49 -101 -57 -46 -8 -65 -36 -37 -53 7 -5 193 -9 413 -9 451 0 452 0 439 65
-4 26 -1 38 15 54 19 19 27 51 22 89 -1 7 7 28 19 47 12 19 19 39 15 45 -15
24 -44 7 -82 -47 -23 -32 -61 -80 -86 -106 -54 -58 -111 -77 -235 -77 -70 0
-89 4 -114 21 -26 19 -29 26 -24 53 4 17 6 55 6 85 -1 38 4 59 17 73 13 15 18
39 20 96 2 52 7 80 16 87 22 16 30 54 28 122 -2 51 1 64 19 81 20 19 23 31 18
77 -5 50 2 77 22 82 11 3 20 9 20 13 0 10 45 27 91 35 42 6 62 25 57 52 -3 17
-20 18 -241 18 -174 0 -241 -3 -249 -12z"/>
<path d="M3978 1583 c-16 -19 1 -52 30 -59 62 -13 72 -21 72 -63 0 -22 -5 -52
-11 -68 -6 -15 -15 -53 -20 -83 -6 -30 -17 -77 -24 -105 -8 -27 -26 -102 -40
-165 -66 -293 -68 -301 -98 -322 -15 -11 -46 -22 -67 -25 -48 -7 -68 -26 -50
-48 11 -13 70 -15 422 -15 242 0 417 4 427 10 19 10 46 89 38 112 -2 7 6 31
18 53 28 48 41 120 25 130 -11 7 -26 -8 -129 -131 -75 -90 -110 -104 -255
-104 -114 0 -165 19 -167 62 -2 42 3 73 13 79 16 10 37 97 31 133 -5 35 4 93
13 83 3 -3 17 6 30 20 24 24 31 25 96 21 91 -7 120 -32 128 -110 4 -45 8 -53
27 -56 27 -4 33 14 37 121 3 71 7 88 26 107 14 14 20 29 17 43 -3 12 1 40 9
62 18 51 18 65 -1 65 -8 0 -30 -24 -49 -52 -58 -91 -74 -101 -170 -106 -52 -3
-91 0 -104 7 -29 15 -28 54 0 73 20 14 22 22 20 86 -3 61 0 74 18 92 14 14 19
27 14 45 -9 36 25 45 173 45 l125 0 35 -37 c18 -21 36 -49 40 -63 9 -40 32
-70 53 -70 17 0 18 5 13 50 -5 40 -3 51 11 56 12 4 16 19 16 55 0 27 5 49 10
49 6 0 10 7 10 15 0 18 -37 19 -493 20 -229 0 -311 -3 -319 -12z"/>
<path d="M7002 1584 c-12 -8 -22 -19 -22 -24 0 -5 -17 -35 -38 -67 -21 -32
-67 -103 -103 -158 -35 -55 -86 -134 -114 -177 -27 -42 -86 -134 -130 -203
-135 -214 -141 -220 -262 -265 -35 -13 -45 -43 -17 -54 20 -8 338 -8 358 0 21
8 20 43 -1 50 -50 16 -92 38 -97 51 -3 8 2 29 12 47 57 109 74 136 94 147 26
14 307 13 324 -2 6 -5 15 -37 18 -70 4 -34 12 -73 17 -87 14 -36 -17 -64 -84
-77 -46 -9 -52 -13 -52 -35 l0 -25 234 -3 c227 -2 261 1 261 29 0 5 -25 24
-55 44 -31 19 -60 46 -65 59 -5 13 -14 27 -19 31 -6 3 -11 32 -11 63 0 71 -10
133 -20 127 -14 -8 -31 87 -28 159 1 53 -2 71 -15 80 -19 15 -42 134 -34 183
5 27 2 39 -12 52 -21 18 -34 94 -19 109 19 19 -3 32 -50 32 -27 0 -57 -7 -70
-16z m-52 -298 c19 -50 40 -239 28 -253 -8 -10 -38 -13 -117 -11 l-106 3 -3
26 c-2 18 5 35 23 53 14 14 23 31 19 37 -3 6 3 17 15 25 12 8 21 23 21 33 0
10 7 24 15 31 8 7 15 16 15 21 0 4 4 19 10 33 13 36 66 37 80 2z"/>
<path d="M7621 1589 c-26 -10 -47 -52 -55 -112 -4 -27 -14 -67 -22 -90 -18
-50 -13 -67 21 -67 20 0 27 6 31 29 4 17 12 32 20 35 8 3 14 15 14 26 0 11 5
20 10 20 6 0 35 20 66 45 53 44 57 45 125 45 52 0 71 -4 75 -15 3 -8 -6 -60
-20 -117 -13 -57 -36 -155 -51 -218 -14 -63 -32 -140 -39 -170 -8 -30 -24 -98
-36 -150 -12 -52 -26 -102 -31 -111 -11 -22 -70 -49 -107 -49 -38 0 -60 -24
-42 -45 10 -13 51 -15 250 -15 131 0 245 3 254 6 22 8 20 43 -1 50 -10 3 -41
16 -68 30 -59 28 -65 47 -33 113 14 29 21 61 20 101 -1 44 4 64 19 81 21 25
22 27 23 120 1 47 6 72 17 85 12 13 18 43 21 97 3 59 8 82 20 91 11 8 18 30
20 62 l3 49 89 3 c110 4 124 -7 161 -119 14 -42 32 -80 40 -83 19 -7 38 20 32
46 -4 12 -2 27 4 34 6 7 6 15 1 18 -13 8 7 118 26 139 34 39 12 41 -422 42
-228 1 -423 -2 -435 -6z"/>
<path d="M8580 1586 c-25 -25 -2 -66 35 -66 27 0 55 -30 55 -58 0 -12 -10 -61
-21 -109 -20 -85 -34 -143 -78 -338 -11 -49 -25 -106 -30 -125 -6 -19 -11 -46
-11 -59 0 -70 -67 -141 -133 -141 -33 0 -54 -25 -37 -45 11 -13 70 -15 419
-15 223 0 416 3 429 6 19 5 22 12 18 30 -4 16 1 34 13 52 25 33 38 82 22 82
-10 0 5 48 20 60 17 14 30 53 21 62 -20 20 -45 1 -115 -87 -94 -117 -116 -129
-267 -133 -104 -4 -118 -2 -141 16 -24 20 -25 25 -24 112 1 50 6 95 12 98 23
15 35 55 28 98 -6 41 -5 44 26 60 25 12 49 15 103 11 60 -4 73 -8 92 -31 13
-14 26 -46 29 -70 8 -49 26 -72 50 -62 13 4 15 15 10 47 -5 31 -2 46 11 60 12
14 17 35 16 81 -1 46 4 71 19 94 10 17 19 39 19 48 0 9 5 16 11 16 6 0 9 10 7
23 -2 15 -9 21 -23 20 -20 -2 -27 -9 -68 -72 -34 -53 -68 -72 -138 -80 -77 -9
-89 -7 -112 25 -16 22 -17 31 -7 76 6 29 16 55 22 59 6 4 11 22 10 41 -5 132
15 148 184 148 62 0 124 -4 138 -10 28 -10 74 -77 88 -127 7 -25 14 -33 32
-33 27 0 40 22 24 38 -16 16 7 131 32 154 23 22 25 34 8 45 -18 12 -787 10
-798 -1z"/>
<path d="M4873 1070 c-16 -7 -24 -23 -33 -66 -17 -83 -14 -84 189 -84 91 0
171 4 178 8 17 11 34 62 28 83 -4 11 -2 19 4 19 17 0 13 37 -5 44 -24 9 -336
6 -361 -4z"/>
</g>
</svg>
