<?xml version="1.0" standalone="no"?>
<!DOCTYPE svg PUBLIC "-//W3C//DTD SVG 20010904//EN"
 "http://www.w3.org/TR/2001/REC-SVG-20010904/DTD/svg10.dtd">
<svg version="1.0" xmlns="http://www.w3.org/2000/svg"
 width="3840.000000pt" height="2160.000000pt" viewBox="0 0 3840.000000 2160.000000"
 preserveAspectRatio="xMidYMid meet">

<g transform="translate(0.000000,2160.000000) scale(0.100000,-0.100000)"
fill="#000000" stroke="none">
<path d="M9632 18288 c-355 -28 -698 -149 -1092 -383 -412 -246 -673 -456
-923 -745 -599 -693 -857 -1376 -857 -2271 0 -171 -10 -159 130 -159 716 -1
1437 371 2031 1048 114 129 307 409 420 607 187 328 334 705 398 1027 43 214
53 310 58 601 l6 288 -39 -3 c-22 -1 -81 -6 -132 -10z"/>
<path d="M16846 15009 c-273 -40 -525 -194 -679 -415 -59 -84 -123 -223 -149
-324 -32 -124 -32 -367 0 -490 29 -107 105 -266 170 -350 129 -170 332 -306
539 -362 111 -29 349 -37 462 -14 319 65 574 258 711 540 73 150 95 247 95
431 0 180 -21 277 -90 423 -120 253 -324 432 -595 521 -133 44 -323 60 -464
40z"/>
<path d="M23595 14989 c-1292 -70 -2376 -524 -3175 -1329 -875 -881 -1372
-2132 -1460 -3670 -13 -229 -13 -677 0 -910 76 -1345 467 -2475 1151 -3325
802 -997 1968 -1568 3394 -1665 192 -13 659 -13 840 0 1134 80 2092 449 2840
1092 1029 886 1608 2219 1704 3923 13 225 5 853 -14 1075 -101 1212 -445 2207
-1038 3006 -735 990 -1820 1599 -3142 1763 -334 42 -774 58 -1100 40z m675
-1619 c251 -28 477 -79 682 -154 1074 -390 1773 -1384 1977 -2811 43 -301 55
-484 55 -870 0 -386 -12 -569 -55 -870 -246 -1722 -1224 -2810 -2661 -2960
-170 -17 -471 -20 -638 -4 -556 50 -1068 246 -1470 563 -665 523 -1103 1384
-1239 2436 -42 320 -46 398 -46 835 0 437 4 515 46 835 154 1190 689 2125
1495 2615 377 230 847 371 1319 398 107 6 437 -2 535 -13z"/>
<path d="M33515 14989 c-685 -38 -1293 -184 -1823 -439 -933 -449 -1538 -1193
-1717 -2111 -44 -224 -58 -408 -51 -664 8 -342 46 -575 137 -849 273 -824 942
-1404 2048 -1777 304 -103 342 -113 1751 -445 386 -91 493 -118 670 -171 456
-135 794 -296 1037 -494 294 -241 440 -579 419 -974 -17 -332 -138 -597 -386
-845 -145 -146 -263 -229 -465 -329 -355 -177 -736 -263 -1220 -275 -640 -16
-1230 137 -1684 438 -179 118 -381 316 -490 479 -121 184 -201 373 -237 565
-9 48 -20 96 -24 107 -7 20 -16 20 -911 20 l-903 0 3 -60 c7 -194 56 -489 116
-708 221 -807 777 -1464 1589 -1877 494 -251 1050 -403 1741 -476 204 -21 826
-30 1055 -15 1252 83 2209 455 2865 1115 413 416 670 905 785 1496 64 330 76
793 29 1115 -66 452 -212 824 -451 1143 -85 113 -316 349 -438 446 -433 344
-1050 619 -1855 826 -104 27 -377 92 -605 145 -228 53 -550 127 -716 165 -881
204 -1363 410 -1661 709 -259 260 -353 610 -272 1014 87 436 397 787 876 994
296 128 599 189 988 200 972 28 1718 -332 2036 -982 73 -149 114 -274 140
-429 12 -67 23 -131 25 -143 l4 -23 892 0 891 0 -7 133 c-20 412 -135 838
-322 1197 -534 1023 -1647 1659 -3098 1770 -191 15 -580 19 -761 9z"/>
<path d="M9240 14679 c-218 -23 -515 -85 -815 -172 -211 -62 -337 -105 -655
-227 -266 -102 -649 -229 -795 -266 -94 -23 -122 -26 -200 -21 -180 13 -518
118 -1045 325 -568 223 -915 318 -1295 353 -296 27 -726 -23 -1082 -127 -564
-163 -1113 -489 -1557 -923 -234 -230 -412 -449 -582 -718 -330 -520 -554
-1180 -643 -1893 -39 -304 -46 -438 -45 -825 0 -393 10 -556 55 -915 158
-1274 639 -2637 1310 -3711 88 -140 370 -539 592 -839 289 -389 454 -580 688
-797 264 -244 397 -342 604 -444 395 -194 780 -224 1278 -98 123 31 375 112
661 213 553 196 1080 300 1416 281 331 -19 650 -88 1040 -225 539 -190 903
-292 1175 -331 113 -16 365 -16 470 0 336 52 630 188 910 423 169 141 501 479
626 638 188 238 255 332 566 810 244 374 363 579 543 939 144 288 204 424 230
518 34 120 115 311 187 435 35 62 65 116 66 119 1 4 -72 45 -163 91 -360 183
-624 380 -931 696 -517 531 -796 1108 -896 1852 -14 107 -18 203 -18 465 0
336 6 418 46 660 145 865 631 1590 1426 2121 79 53 143 99 143 104 0 12 -103
153 -178 245 -366 445 -866 789 -1443 994 -537 190 -1248 295 -1689 250z"/>
<path d="M16095 12011 c-3 -2 -5 -1750 -5 -3883 l0 -3878 905 0 905 0 -2 3883
-3 3882 -898 1 c-494 0 -900 -2 -902 -5z"/>
</g>
</svg>
