<?xml version="1.0" encoding="UTF-8"?>
<svg version="1.1" xmlns="http://www.w3.org/2000/svg" width="300" height="219">
<path d="M0 0 C99 0 198 0 300 0 C300 72.27 300 144.54 300 219 C201 219 102 219 0 219 C0 146.73 0 74.46 0 0 Z " fill="#ED1D24" transform="translate(0,0)"/>
<path d="M0 0 C1.24394531 0.22816406 2.48789063 0.45632812 3.76953125 0.69140625 C21.51511897 4.37524712 41.86238758 13.40671555 52.4375 28.6875 C55.58892674 33.5986978 57.28245469 37.7344738 57.25 43.625 C57.25773437 45.03652344 57.25773437 45.03652344 57.265625 46.4765625 C57 49 57 49 55 52 C54.59910156 51.29875 54.19820312 50.5975 53.78515625 49.875 C43.98347039 33.51663085 27.01583103 24.05100276 8.71435547 19.421875 C-27.08294308 11.03730497 -69.75265154 11.10859067 -101.9765625 30.89453125 C-109.24717039 35.95765483 -115.22203236 41.53442556 -120 49 C-120.66 49.99 -121.32 50.98 -122 52 C-123.88568633 50.11431367 -123.34705663 47.15193299 -123.4375 44.625 C-123.35032342 35.0936939 -119.7740789 28.74103106 -113.4375 21.8125 C-84.24127799 -5.3778747 -37.02285044 -6.90973841 0 0 Z " fill="#FEF9F8" transform="translate(181,41)"/>
<path d="M0 0 C28.93984893 -1.22246443 63.79024625 2.84788453 86.45263672 22.65673828 C87.97145615 24.11657443 89.47413307 25.59358476 90.95263672 27.09423828 C91.47599609 27.60728516 91.99935547 28.12033203 92.53857422 28.64892578 C98.08175284 34.59524467 100.4334663 42.20052853 100.28857422 50.18408203 C99.95263672 52.09423828 99.95263672 52.09423828 97.95263672 55.09423828 C97.57494141 54.40458984 97.19724609 53.71494141 96.80810547 53.00439453 C87.38689773 36.91994386 71.66268744 29.35222042 54.51513672 23.78173828 C53.81388672 23.55139893 53.11263672 23.32105957 52.39013672 23.08374023 C39.03139358 19.01368489 25.64244047 17.5903048 11.7409668 17.703125 C9.38710868 17.71925904 7.03496037 17.70313329 4.68115234 17.68408203 C-14.4032066 17.65798623 -33.97028672 21.3767486 -51.04736328 30.09423828 C-51.94970703 30.52349609 -52.85205078 30.95275391 -53.78173828 31.39501953 C-64.37458263 36.70640335 -73.23542963 44.08793699 -78.04736328 55.09423828 C-78.70736328 55.09423828 -79.36736328 55.09423828 -80.04736328 55.09423828 C-80.7909187 44.8910056 -80.62204847 37.44345015 -74.04736328 29.09423828 C-57.26981097 10.45251349 -29.6758377 1.65436882 -5.11376953 0.19189453 C-3.40884435 0.13759755 -1.70398542 0.07843291 0 0 Z " fill="#FEFAF9" transform="translate(138.04736328125,65.90576171875)"/>
<path d="M0 0 C99 0 198 0 300 0 C300 71.61 300 143.22 300 217 C299.34 217.33 298.68 217.66 298 218 C298 146.72 298 75.44 298 2 C200.32 2 102.64 2 2 2 C2 73.28 2 144.56 2 218 C1.34 217.67 0.68 217.34 0 217 C0 145.39 0 73.78 0 0 Z " fill="#F11C24" transform="translate(0,0)"/>
<path d="M0 0 C4.455 -0.103125 8.91 -0.20625 13.5 -0.3125 C15.58344727 -0.38078003 15.58344727 -0.38078003 17.70898438 -0.45043945 C24.97540658 -0.5316783 30.55503931 -0.20152723 36 5 C37.58939347 8.17878694 37.41576711 10.4956772 37 14 C34.18665523 16.81334477 31.30012683 18.79991544 28 21 C28.680625 21.474375 29.36125 21.94875 30.0625 22.4375 C33.95509397 25.83316708 37.12483932 29.70797339 40 34 C40 34.66 40 35.32 40 36 C36.13401181 36.71538847 32.84468144 36.9116255 29 36 C26.18523823 33.45654057 24.14381113 30.80376731 21.97265625 27.69921875 C20.06577223 25.08999726 18.80951577 23.55302392 16 22 C13.69 21.67 11.38 21.34 9 21 C9 25.95 9 30.9 9 36 C6.03 36 3.06 36 0 36 C0 24.12 0 12.24 0 0 Z " fill="#FEF4F3" transform="translate(112,144)"/>
<path d="M0 0 C10 0 10 0 13.42578125 3.2890625 C14.42185384 4.71126946 15.38371886 6.15796257 16.3125 7.625 C17.28647374 9.05556436 18.26171769 10.48526481 19.23828125 11.9140625 C19.65118408 12.5529541 20.06408691 13.1918457 20.48950195 13.85009766 C22.48838714 16.6951248 24.77406113 19.32887335 27 22 C27.33 15.07 27.66 8.14 28 1 C30.64 1 33.28 1 36 1 C36 12.22 36 23.44 36 35 C26 35 26 35 22.79296875 32.1484375 C21.89151392 30.91403658 21.02314758 29.65486701 20.1875 28.375 C19.30671319 27.13229931 18.42520796 25.8901075 17.54296875 24.6484375 C17.17196045 24.09333496 16.80095215 23.53823242 16.41870117 22.96630859 C14.42339756 20.20083358 12.1831216 17.61974592 10 15 C9.67 21.93 9.34 28.86 9 36 C6.03 36 3.06 36 0 36 C0 24.12 0 12.24 0 0 Z " fill="#FEF6F5" transform="translate(157,144)"/>
<path d="M0 0 C3.63 0 7.26 0 11 0 C11.47308594 0.94617188 11.94617188 1.89234375 12.43359375 2.8671875 C12.74876953 3.49737793 13.06394531 4.12756836 13.38867188 4.77685547 C14.09492064 6.18968179 14.80063965 7.60277303 15.50585938 9.01611328 C17.50329074 13.01709774 19.51108585 17.01241827 21.53515625 21 C22.15209351 22.22033936 22.15209351 22.22033936 22.78149414 23.46533203 C23.58608842 25.05646518 24.39380981 26.64602135 25.20483398 28.23388672 C28 33.77493216 28 33.77493216 28 36 C24.7 36 21.4 36 18 36 C15 30.25 15 30.25 15 28 C8.73 28 2.46 28 -4 28 C-4.66 29.98 -5.32 31.96 -6 34 C-6.33 34.66 -6.66 35.32 -7 36 C-10.3 36 -13.6 36 -17 36 C-15.58503846 31.3843831 -13.70520721 27.14423157 -11.5234375 22.8515625 C-11.19332672 22.19417084 -10.86321594 21.53677917 -10.52310181 20.85946655 C-9.47750603 18.77938683 -8.4263553 16.70217356 -7.375 14.625 C-6.6610881 13.20721762 -5.9475427 11.78925062 -5.234375 10.37109375 C-3.49381428 6.91191323 -1.74826918 3.45529063 0 0 Z " fill="#FEF3F1" transform="translate(79,144)"/>
<path d="M0 0 C10.89 0 21.78 0 33 0 C33 1.65 33 3.3 33 5 C25.08 5 17.16 5 9 5 C9 7.64 9 10.28 9 13 C16.26 13 23.52 13 31 13 C31 14.98 31 16.96 31 19 C23.74 19 16.48 19 9 19 C9 21.97 9 24.94 9 28 C17.25 28 25.5 28 34 28 C34 29.98 34 31.96 34 34 C22.78 34 11.56 34 0 34 C0 22.78 0 11.56 0 0 Z " fill="#FEF9F7" transform="translate(203,145)"/>
<path d="M0 0 C4.12919309 2.21206773 5.88652536 4.03645912 8.5 7.875 C8.5 8.535 8.5 9.195 8.5 9.875 C5.14661532 10.5213585 1.92048903 11.02726342 -1.5 10.875 C-2.87868281 9.24564759 -4.21274093 7.57750393 -5.5 5.875 C-8.60172505 5.15558849 -11.38610888 5.25888251 -14.5 5.875 C-17.37029869 7.66893668 -18.99131638 8.85763276 -20.5 11.875 C-20.94080589 16.1898115 -20.97056025 19.82184134 -19.1875 23.8125 C-17.48902321 26.09372261 -17.48902321 26.09372261 -14.5 27.875 C-9.50726409 28.33729036 -6.50009315 27.96078614 -2.5 24.875 C-1.84 23.885 -1.18 22.895 -0.5 21.875 C2.47 22.205 5.44 22.535 8.5 22.875 C7.17240054 28.18539782 5.29320936 30.71937619 0.6875 33.6875 C-6.04638429 36.18907257 -14.71040496 36.37741438 -21.3671875 33.73828125 C-25.86992873 30.92591337 -29.07311184 28.10692327 -30.5 22.875 C-31.08881082 16.96424521 -31.36957656 11.78137939 -28.875 6.3125 C-21.08544991 -1.68203825 -10.61104046 -3.44909537 0 0 Z " fill="#FEF5F2" transform="translate(50.5,145.125)"/>
<path d="M0 0 C12.21 0 24.42 0 37 0 C37 1.98 37 3.96 37 6 C32.38 6 27.76 6 23 6 C23 15.9 23 25.8 23 36 C20.03 36 17.06 36 14 36 C14 26.43 14 16.86 14 7 C9.38 7 4.76 7 0 7 C0 4.69 0 2.38 0 0 Z " fill="#FDF0EF" transform="translate(241,144)"/>
<path d="M0 0 C2.43816585 -0.0809723 4.87364384 -0.14046972 7.3125 -0.1875 C8.34793945 -0.22520508 8.34793945 -0.22520508 9.40429688 -0.26367188 C14.50007358 -0.33752371 14.50007358 -0.33752371 16.99609375 1.34765625 C18 3 18 3 17.75 5.625 C17 8 17 8 16 9 C13.30345146 9.07319621 10.63308542 9.09242537 7.9375 9.0625 C6.79958008 9.05573242 6.79958008 9.05573242 5.63867188 9.04882812 C3.75908129 9.0370068 1.87953101 9.01907078 0 9 C0 6.03 0 3.06 0 0 Z " fill="#EE292E" transform="translate(121,150)"/>
<path d="M0 0 C3 1 3 1 4.16796875 2.99609375 C4.50441406 3.80175781 4.84085938 4.60742188 5.1875 5.4375 C5.53167969 6.24058594 5.87585938 7.04367188 6.23046875 7.87109375 C7 10 7 10 7 12 C3.37 12 -0.26 12 -4 12 C-3.07988583 7.39942914 -1.89559434 4.20327441 0 0 Z " fill="#EF3436" transform="translate(83,154)"/>
<path d="M0 0 C0 3 0 3 -1.96875 5.26171875 C-2.8040625 6.06222656 -3.639375 6.86273438 -4.5 7.6875 C-5.3353125 8.49574219 -6.170625 9.30398437 -7.03125 10.13671875 C-8.00578125 11.05904297 -8.00578125 11.05904297 -9 12 C-9.99 11.67 -10.98 11.34 -12 11 C-10.37807179 9.35113941 -8.75236228 7.7059976 -7.125 6.0625 C-6.22007813 5.14597656 -5.31515625 4.22945313 -4.3828125 3.28515625 C-2 1 -2 1 0 0 Z " fill="#EE282B" transform="translate(75,74)"/>
<path d="M0 0 C0.99 0.33 1.98 0.66 3 1 C0.69 3.31 -1.62 5.62 -4 8 C-4.99 7.67 -5.98 7.34 -7 7 C-4.69 4.69 -2.38 2.38 0 0 Z " fill="#EE2B2D" transform="translate(71,105)"/>
</svg>
