<?xml version="1.0" encoding="UTF-8"?>
<svg version="1.1" xmlns="http://www.w3.org/2000/svg" width="128" height="83">
<path d="M0 0 C6.01546781 5.71024323 9.11810531 13.06299508 11.84765625 20.75390625 C13.00394531 20.24730469 13.00394531 20.24730469 14.18359375 19.73046875 C17.28119768 18.59498344 18.71287517 18.92896386 21.84765625 19.75390625 C24.8494265 19.86012107 24.8494265 19.86012107 27.72265625 19.12890625 C31.22483552 18.70864474 32.81896791 18.98717139 35.84765625 20.75390625 C37.16015625 22.87890625 37.16015625 22.87890625 37.84765625 24.75390625 C38.50765625 24.75390625 39.16765625 24.75390625 39.84765625 24.75390625 C40.12609375 23.82578125 40.12609375 23.82578125 40.41015625 22.87890625 C41.84765625 20.75390625 41.84765625 20.75390625 45.22265625 19.44140625 C48.40042625 18.83872573 49.92167548 18.58351394 52.84765625 19.75390625 C52.84765625 17.77390625 52.84765625 15.79390625 52.84765625 13.75390625 C54.82765625 13.75390625 56.80765625 13.75390625 58.84765625 13.75390625 C59.42767651 30.44560035 59.42767651 30.44560035 55.84765625 35.75390625 C52.30574076 38.1826483 48.83150983 38.0086104 44.71875 37.37109375 C41.66879489 36.36505428 40.42297885 34.44508235 38.84765625 31.75390625 C38.84765625 31.09390625 38.84765625 30.43390625 38.84765625 29.75390625 C35.21765625 30.08390625 31.58765625 30.41390625 27.84765625 30.75390625 C29.03189951 32.16968102 29.03189951 32.16968102 32.41015625 31.81640625 C34.11171875 31.78546875 34.11171875 31.78546875 35.84765625 31.75390625 C35.84765625 33.40390625 35.84765625 35.05390625 35.84765625 36.75390625 C28.80284493 38.08999116 28.80284493 38.08999116 24.47265625 36.56640625 C21.76275833 34.69528626 20.76453761 33.87130288 19.84765625 30.75390625 C19.72265625 28.00390625 19.72265625 28.00390625 19.84765625 25.75390625 C18.36265625 25.25890625 18.36265625 25.25890625 16.84765625 24.75390625 C16.51765625 28.71390625 16.18765625 32.67390625 15.84765625 36.75390625 C14.19765625 36.75390625 12.54765625 36.75390625 10.84765625 36.75390625 C10.80640625 37.55828125 10.76515625 38.36265625 10.72265625 39.19140625 C8.84022109 46.85560655 3.08797805 53.99373668 -3.15234375 58.75390625 C-13.4097936 64.45084962 -23.21201254 66.37151678 -34.71484375 63.62890625 C-44.47777306 60.66835646 -52.44173142 54.39691738 -57.4375 45.453125 C-59.39375005 41.28119389 -60.67859342 37.37297195 -61.15234375 32.75390625 C-60.16234375 33.41390625 -59.17234375 34.07390625 -58.15234375 34.75390625 C-55.18391717 35.21306132 -55.18391717 35.21306132 -51.96484375 35.37890625 C-50.87816406 35.45367187 -49.79148437 35.5284375 -48.671875 35.60546875 C-47.84042969 35.65445313 -47.00898437 35.7034375 -46.15234375 35.75390625 C-46.15234375 34.76390625 -46.15234375 33.77390625 -46.15234375 32.75390625 C-49.45234375 32.75390625 -52.75234375 32.75390625 -56.15234375 32.75390625 C-56.15234375 30.77390625 -56.15234375 28.79390625 -56.15234375 26.75390625 C-53.51234375 26.75390625 -50.87234375 26.75390625 -48.15234375 26.75390625 C-48.15234375 26.09390625 -48.15234375 25.43390625 -48.15234375 24.75390625 C-52.11234375 24.25890625 -52.11234375 24.25890625 -56.15234375 23.75390625 C-56.15234375 21.77390625 -56.15234375 19.79390625 -56.15234375 17.75390625 C-52.85234375 17.75390625 -49.55234375 17.75390625 -46.15234375 17.75390625 C-46.15234375 16.76390625 -46.15234375 15.77390625 -46.15234375 14.75390625 C-50.11234375 14.75390625 -54.07234375 14.75390625 -58.15234375 14.75390625 C-56.4953051 6.46871301 -51.03920917 0.74106053 -44.19140625 -4.03125 C-29.80796945 -12.60069223 -12.78807737 -10.14402162 0 0 Z M-30.15234375 14.75390625 C-30.15234375 17.06390625 -30.15234375 19.37390625 -30.15234375 21.75390625 C-31.20421875 21.38265625 -32.25609375 21.01140625 -33.33984375 20.62890625 C-37.36476466 19.70515391 -38.6815645 19.6714387 -42.15234375 21.75390625 C-44.63273282 25.47448985 -44.61571578 27.35187196 -44.15234375 31.75390625 C-42.11839102 34.7266064 -40.69390722 35.57730947 -37.27734375 36.69140625 C-33.31689171 36.77061529 -31.38652971 36.03253727 -28.15234375 33.75390625 C-26.25535532 29.36791622 -25.93050106 25.62419802 -26.02734375 20.87890625 C-26.04539062 19.72648437 -26.0634375 18.5740625 -26.08203125 17.38671875 C-26.10523437 16.51789062 -26.1284375 15.6490625 -26.15234375 14.75390625 C-27.47234375 14.75390625 -28.79234375 14.75390625 -30.15234375 14.75390625 Z M-22.15234375 22.75390625 C-24.50852917 25.63990013 -24.50852917 25.63990013 -23.96484375 29.25390625 C-23.37803755 32.59539543 -23.37803755 32.59539543 -22.02734375 34.62890625 C-19.09670462 36.38728973 -16.533547 36.63314899 -13.15234375 36.75390625 C-11.1880297 35.46125926 -11.1880297 35.46125926 -10.15234375 33.75390625 C-11.26609375 33.67140625 -12.37984375 33.58890625 -13.52734375 33.50390625 C-14.72359375 33.25640625 -15.91984375 33.00890625 -17.15234375 32.75390625 C-17.81234375 31.43390625 -18.47234375 30.11390625 -19.15234375 28.75390625 C-15.19234375 28.75390625 -11.23234375 28.75390625 -7.15234375 28.75390625 C-7.89223217 23.70906022 -7.89223217 23.70906022 -11.15234375 20.75390625 C-15.90522015 19.30737865 -18.2363175 19.70810806 -22.15234375 22.75390625 Z M-4.15234375 22.75390625 C-5.47463564 25.39849004 -5.24911569 27.43151926 -5.21484375 30.37890625 C-5.20582031 31.38179687 -5.19679687 32.3846875 -5.1875 33.41796875 C-5.17589844 34.18882813 -5.16429687 34.9596875 -5.15234375 35.75390625 C-3.83234375 35.75390625 -2.51234375 35.75390625 -1.15234375 35.75390625 C-0.82234375 32.12390625 -0.49234375 28.49390625 -0.15234375 24.75390625 C1.82765625 24.42390625 3.80765625 24.09390625 5.84765625 23.75390625 C6.17765625 27.71390625 6.50765625 31.67390625 6.84765625 35.75390625 C7.83765625 35.75390625 8.82765625 35.75390625 9.84765625 35.75390625 C9.92873208 33.81709464 9.986881 31.87931285 10.03515625 29.94140625 C10.06996094 28.86246094 10.10476562 27.78351562 10.140625 26.671875 C10.09737513 23.77360424 10.09737513 23.77360424 8.515625 21.921875 C3.90481403 18.69322751 0.09384815 19.4782725 -4.15234375 22.75390625 Z M27.84765625 23.75390625 C27.51765625 24.41390625 27.18765625 25.07390625 26.84765625 25.75390625 C28.82765625 25.75390625 30.80765625 25.75390625 32.84765625 25.75390625 C32.51765625 25.09390625 32.18765625 24.43390625 31.84765625 23.75390625 C30.52765625 23.75390625 29.20765625 23.75390625 27.84765625 23.75390625 Z M45.84765625 24.75390625 C44.84548561 28.33718378 44.84548561 28.33718378 45.84765625 31.75390625 C47.49765625 31.75390625 49.14765625 31.75390625 50.84765625 31.75390625 C51.50765625 30.43390625 52.16765625 29.11390625 52.84765625 27.75390625 C52.18765625 26.76390625 51.52765625 25.77390625 50.84765625 24.75390625 C48.26385448 24.50359648 48.26385448 24.50359648 45.84765625 24.75390625 Z " fill="#F72616" transform="translate(65.15234375,13.24609375)"/>
<path d="M0 0 C0.99 0.103125 1.98 0.20625 3 0.3125 C5 3.3125 5 3.3125 4.6875 5.9375 C4 8.3125 4 8.3125 3 9.3125 C0.66702567 9.35342937 -1.66705225 9.35491723 -4 9.3125 C-4.625 5.9375 -4.625 5.9375 -5 2.3125 C-3 0.3125 -3 0.3125 0 0 Z " fill="#F72716" transform="translate(30,36.6875)"/>
<path d="M0 0 C1.65 0 3.3 0 5 0 C5.66 1.32 6.32 2.64 7 4 C4.03 4 1.06 4 -2 4 C-1.34 2.68 -0.68 1.36 0 0 Z " fill="#F82616" transform="translate(47,36)"/>
</svg>
