<?xml version="1.0" encoding="UTF-8"?>
<svg version="1.1" xmlns="http://www.w3.org/2000/svg" width="400" height="119">
<path d="M0 0 C2.77856005 1.13947679 5.48241238 2.41142075 8.19580078 3.69677734 C15.75643228 7.25803657 22.61716784 8.25443828 30.95532227 8.61914062 C41.2023423 9.08928544 49.35899063 10.5544327 56.53125 18.40332031 C63.45084302 27.53129408 63.71056025 37.31660961 63 48.34082031 C62.43931215 51.93777545 61.47191884 55.01768047 60 58.34082031 C59.64421875 59.1490625 59.2884375 59.95730469 58.921875 60.79003906 C55.82705305 67.02629173 51.77787758 72.32926934 47.5 77.77832031 C42.37185449 84.31144702 38.34645042 90.70673029 35 98.34082031 C29.17531565 111.4147042 29.17531565 111.4147042 22 115.34082031 C16.01224217 117.33673959 8.44952104 117.57965759 2.4765625 115.43457031 C-3.49517333 111.86525694 -7.75339304 106.96291506 -10 100.34082031 C-11.16113181 92.38401181 -9.71364169 85.86406698 -5 79.34082031 C-2.79323329 77.13791835 -0.53593254 75.15492424 1.9140625 73.22753906 C6.37992057 69.18819553 7.74451525 64.94676476 8.3125 59.15332031 C7.7892106 52.76918959 5.04779212 46.55967621 0.73828125 41.74316406 C-3.98373711 37.93371555 -9.92416736 35.72718107 -15.41796875 33.25097656 C-20.42341157 30.91259896 -23.46056541 28.4196895 -26 23.34082031 C-26.49328755 17.4860632 -26.85744288 12.1509775 -24.3125 6.77832031 C-17.38452468 -0.52414016 -10.05684091 -3.31463263 0 0 Z " fill="#0C8AB7" transform="translate(69,1.6591796875)"/>
<path d="M0 0 C3.72650025 3.34100023 4.47086976 8.20207583 5 13 C5.12834214 22.53582067 2.93947464 30.33142262 -2.125 38.375 C-6.88322665 42.71946781 -12.64325719 45.14345644 -19.125 45.4375 C-27.74220734 44.46458949 -31.7811506 41.79316955 -37.43359375 35.15625 C-41.41400945 29.67697453 -40.62308282 22.45284624 -40 16 C-37.37101222 8.49029051 -30.72090665 3.2845018 -23.875 -0.3125 C-15.77430243 -4.05247723 -7.83163931 -4.29972354 0 0 Z " fill="#19BCD6" transform="translate(41,41)"/>
<path d="M0 0 C4.76905569 4.03856576 8.40719996 7.98473372 9.60546875 14.26953125 C10.14320078 20.9794918 9.73879294 27.90010538 5.78515625 33.51171875 C-0.24781195 39.68864064 -5.08970724 42.78145299 -13.90234375 42.94921875 C-21.43106902 42.82295082 -27.42616603 41.2824831 -32.8671875 35.8671875 C-37.46939632 29.95768458 -39.10607821 22.92953173 -38.21484375 15.51171875 C-36.61897036 8.55743837 -34.1246577 3.82634348 -28.46484375 -0.67578125 C-19.39516796 -5.73386967 -8.65396156 -6.20170962 0 0 Z M-27.08984375 11.63671875 C-28.77968626 15.95520517 -28.87445358 19.93842395 -28.21484375 24.51171875 C-26.05185538 28.91780618 -23.81803896 31.71046845 -19.21484375 33.51171875 C-14.17158991 34.19597932 -10.38407491 34.08570495 -5.77734375 31.82421875 C-2.41828363 28.79287181 -0.52128744 26.77032227 0.1015625 22.1796875 C0.36729277 16.46220066 -0.24637223 12.90921422 -4.21484375 8.51171875 C-8.05197571 5.12601408 -11.84885837 4.99880703 -16.77734375 5.16015625 C-21.44010521 5.83266992 -24.06674667 8.21054206 -27.08984375 11.63671875 Z " fill="#718191" transform="translate(372.21484375,23.48828125)"/>
<path d="M0 0 C1.8125 1.97265625 1.8125 1.97265625 3 4 C2.58974359 8.41025641 2.58974359 8.41025641 1 10 C-2.95679828 10.46009282 -4.54625856 10.33274372 -7.8125 7.9375 C-11.65363147 5.6026946 -13.56446637 5.6669944 -17.8828125 6.38671875 C-21.68705461 7.48868556 -24.07238871 9.47140112 -26.109375 12.828125 C-27.72426153 16.76618163 -27.44094151 20.82123122 -27 25 C-25.41872214 28.71600298 -23.53841969 31.03421128 -20 33 C-14.58949215 34.3271057 -11.11653966 33.77512601 -6 32 C-5.67 29.69 -5.34 27.38 -5 25 C-6.26457031 25.03480469 -6.26457031 25.03480469 -7.5546875 25.0703125 C-9.19824219 25.09738281 -9.19824219 25.09738281 -10.875 25.125 C-11.96554687 25.14820312 -13.05609375 25.17140625 -14.1796875 25.1953125 C-17 25 -17 25 -19 23 C-19.25 20.5 -19.25 20.5 -19 18 C-17 16 -17 16 -15.15234375 15.75708008 C-14.42144531 15.76118896 -13.69054687 15.76529785 -12.9375 15.76953125 C-12.14085937 15.77146484 -11.34421875 15.77339844 -10.5234375 15.77539062 C-9.27433594 15.79375977 -9.27433594 15.79375977 -8 15.8125 C-7.16726563 15.81314453 -6.33453125 15.81378906 -5.4765625 15.81445312 C0.71913485 15.85956743 0.71913485 15.85956743 3 17 C4.19382927 20.58148781 4.24203361 23.59948526 4.3125 27.375 C4.36857422 29.33566406 4.36857422 29.33566406 4.42578125 31.3359375 C3.93761142 35.53688521 2.9667137 37.06015871 0 40 C-6.62751869 44.2710676 -14.36364686 43.72884932 -22 43 C-28.22894724 41.39005671 -32.56463822 37.34515172 -36 32 C-39.14107048 24.29009974 -38.81365717 16.70259877 -35.8984375 9 C-33.05735103 2.67549447 -28.1714958 -0.29411651 -22 -3 C-13.97425227 -4.92763427 -7.20652423 -4.08201722 0 0 Z " fill="#718191" transform="translate(325,23)"/>
<path d="M0 0 C2.375 0.75 2.375 0.75 3.375 1.75 C3.4761692 4.84081465 3.51468558 7.90882555 3.5078125 11 C3.50876923 11.92844727 3.50972595 12.85689453 3.51071167 13.81347656 C3.51139355 15.78059965 3.50953872 17.74772496 3.50537109 19.71484375 C3.50002295 22.73703026 3.50531582 25.75906815 3.51171875 28.78125 C3.51105797 30.68750033 3.50977681 32.59375057 3.5078125 34.5 C3.50983673 35.41040039 3.51186096 36.32080078 3.51394653 37.25878906 C3.48994969 43.63505031 3.48994969 43.63505031 2.375 44.75 C-1.09484691 45.13661247 -2.92917088 45.28015552 -5.7578125 43.125 C-6.41523438 42.34125 -7.07265625 41.5575 -7.75 40.75 C-8.88115234 39.40808594 -8.88115234 39.40808594 -10.03515625 38.0390625 C-15.05980937 31.73291422 -19.85773444 25.25154999 -24.625 18.75 C-24.65005615 19.5020874 -24.6751123 20.2541748 -24.70092773 21.02905273 C-24.81650514 24.41539196 -24.93940345 27.80142613 -25.0625 31.1875 C-25.10181641 32.37150391 -25.14113281 33.55550781 -25.18164062 34.77539062 C-25.22353516 35.90009766 -25.26542969 37.02480469 -25.30859375 38.18359375 C-25.34525146 39.22572021 -25.38190918 40.26784668 -25.41967773 41.34155273 C-25.625 43.75 -25.625 43.75 -26.625 44.75 C-29.5625 44.9375 -29.5625 44.9375 -32.625 44.75 C-35.28914344 42.08585656 -34.86321113 40.09837398 -34.87724304 36.47607422 C-34.87005753 35.61771973 -34.86287201 34.75936523 -34.85546875 33.875 C-34.85501053 32.99473145 -34.85455231 32.11446289 -34.8540802 31.20751953 C-34.85105657 29.34471287 -34.84316695 27.48190876 -34.83081055 25.61914062 C-34.81257421 22.76162801 -34.8103007 19.90443968 -34.81054688 17.046875 C-34.80563096 15.23958052 -34.79980232 13.43228825 -34.79296875 11.625 C-34.79185593 10.76664551 -34.7907431 9.90829102 -34.78959656 9.02392578 C-34.74106391 2.98212781 -34.74106391 2.98212781 -33.625 0.75 C-30.42578125 0.42578125 -30.42578125 0.42578125 -26.625 0.75 C-24.10546875 2.91796875 -24.10546875 2.91796875 -21.8125 5.9375 C-21.40016113 6.46762695 -20.98782227 6.99775391 -20.56298828 7.54394531 C-19.68813069 8.67409355 -18.82310951 9.81191399 -17.96728516 10.95654297 C-16.58625781 12.8017643 -15.17810778 14.62321836 -13.76171875 16.44140625 C-11.36146593 19.52840155 -8.98724941 22.6338412 -6.625 25.75 C-6.61041748 25.06897217 -6.59583496 24.38794434 -6.58081055 23.6862793 C-6.50637304 20.60277785 -6.40969917 17.52036433 -6.3125 14.4375 C-6.28994141 13.36564453 -6.26738281 12.29378906 -6.24414062 11.18945312 C-6.20869141 10.16142578 -6.17324219 9.13339844 -6.13671875 8.07421875 C-6.11053467 7.12635498 -6.08435059 6.17849121 -6.05737305 5.2019043 C-5.37234426 1.31723797 -4.01354543 -0.38224242 0 0 Z " fill="#718191" transform="translate(278.625,19.25)"/>
<path d="M0 0 C1.14984375 0.00064453 2.2996875 0.00128906 3.484375 0.00195312 C4.68578125 0.01806641 5.8871875 0.03417969 7.125 0.05078125 C8.32640625 0.04755859 9.5278125 0.04433594 10.765625 0.04101562 C19.72446075 0.09625508 19.72446075 0.09625508 23.125 2.36328125 C23.5 5.36328125 23.5 5.36328125 23.125 8.36328125 C19.97185215 10.46537982 19.26396919 10.60675735 15.67578125 10.55859375 C14.40444336 10.54892578 14.40444336 10.54892578 13.10742188 10.5390625 C12.22634766 10.52230469 11.34527344 10.50554688 10.4375 10.48828125 C9.54482422 10.47925781 8.65214844 10.47023438 7.73242188 10.4609375 C5.52967686 10.43737873 3.32747412 10.40448454 1.125 10.36328125 C1.125 13.00328125 1.125 15.64328125 1.125 18.36328125 C2.40117187 18.34007813 3.67734375 18.316875 4.9921875 18.29296875 C6.6614525 18.27421296 8.3307238 18.25601256 10 18.23828125 C10.84175781 18.22152344 11.68351562 18.20476563 12.55078125 18.1875 C13.75927734 18.17783203 13.75927734 18.17783203 14.9921875 18.16796875 C15.73581543 18.15749512 16.47944336 18.14702148 17.24560547 18.13623047 C19.125 18.36328125 19.125 18.36328125 21.125 20.36328125 C21.375 22.86328125 21.375 22.86328125 21.125 25.36328125 C19.125 27.36328125 19.125 27.36328125 17.24560547 27.59033203 C16.50197754 27.5798584 15.75834961 27.56938477 14.9921875 27.55859375 C14.18652344 27.55214844 13.38085938 27.54570313 12.55078125 27.5390625 C11.70902344 27.52230469 10.86726563 27.50554688 10 27.48828125 C8.72576172 27.47474609 8.72576172 27.47474609 7.42578125 27.4609375 C5.32540116 27.43733772 3.22516556 27.40146608 1.125 27.36328125 C1.125 30.33328125 1.125 33.30328125 1.125 36.36328125 C1.78097168 36.3475708 2.43694336 36.33186035 3.11279297 36.31567383 C6.07510816 36.25344473 9.0372861 36.21432957 12 36.17578125 C13.03253906 36.15064453 14.06507813 36.12550781 15.12890625 36.09960938 C16.11503906 36.08994141 17.10117188 36.08027344 18.1171875 36.0703125 C19.02839355 36.05460205 19.93959961 36.0388916 20.87841797 36.02270508 C21.99047607 36.19129028 21.99047607 36.19129028 23.125 36.36328125 C25.125 39.36328125 25.125 39.36328125 24.8125 41.98828125 C24.125 44.36328125 24.125 44.36328125 23.125 45.36328125 C18.86793347 45.60518086 14.60521838 45.59178076 10.34204102 45.60351562 C8.19963839 45.61322623 6.05819303 45.64423878 3.91601562 45.67578125 C2.55990155 45.68231061 1.20378059 45.68756135 -0.15234375 45.69140625 C-2.01234009 45.7054248 -2.01234009 45.7054248 -3.90991211 45.71972656 C-4.88839111 45.60209961 -5.86687012 45.48447266 -6.875 45.36328125 C-9.47249344 41.46704109 -9.18075629 38.16527504 -9.17578125 33.64453125 C-9.18006638 32.79024536 -9.1843515 31.93595947 -9.18876648 31.05578613 C-9.19450746 29.25025316 -9.19501174 27.44469705 -9.19067383 25.63916016 C-9.18751182 22.87362352 -9.21098227 20.10915451 -9.23632812 17.34375 C-9.2386009 15.5898451 -9.23930471 13.83593732 -9.23828125 12.08203125 C-9.247491 11.25384888 -9.25670074 10.4256665 -9.26618958 9.5723877 C-9.21954994 3.80008293 -9.21954994 3.80008293 -7.51921082 1.64448547 C-5.0640316 -0.26864267 -3.07518501 -0.0086936 0 0 Z " fill="#718191" transform="translate(213.875,18.63671875)"/>
<path d="M0 0 C1.08378685 -0.0049926 1.08378685 -0.0049926 2.18946838 -0.01008606 C3.71850955 -0.01515113 5.24756178 -0.01749451 6.77661133 -0.01733398 C9.11623345 -0.01951941 11.45538328 -0.03767605 13.79492188 -0.05664062 C15.2799463 -0.05957484 16.76497297 -0.06155945 18.25 -0.0625 C18.95007675 -0.06968552 19.6501535 -0.07687103 20.3714447 -0.08427429 C24.04263893 -0.06700387 25.54893281 0.07298645 28.69140625 2.16796875 C28.94140625 5.23046875 28.94140625 5.23046875 28.69140625 8.16796875 C27.69140625 9.16796875 27.69140625 9.16796875 24.75 9.265625 C22.95755859 9.24822266 22.95755859 9.24822266 21.12890625 9.23046875 C19.33259766 9.21693359 19.33259766 9.21693359 17.5 9.203125 C16.57316406 9.19152344 15.64632812 9.17992187 14.69140625 9.16796875 C14.70187988 10.18745605 14.71235352 11.20694336 14.72314453 12.25732422 C14.75929352 16.03300477 14.78228802 19.80866996 14.80126953 23.58447266 C14.81133879 25.21991547 14.82499506 26.85534024 14.84228516 28.49072266 C14.8664933 30.83891245 14.87787982 33.18686463 14.88671875 35.53515625 C14.89704132 36.26854218 14.90736389 37.0019281 14.91799927 37.75753784 C14.91839993 39.56259572 14.8135338 41.36704705 14.69140625 43.16796875 C12.69140625 45.16796875 12.69140625 45.16796875 10.19140625 45.41796875 C7.69140625 45.16796875 7.69140625 45.16796875 5.69140625 43.16796875 C5.37255859 41.11181641 5.37255859 41.11181641 5.27734375 38.58203125 C5.23859131 37.65600098 5.19983887 36.7299707 5.15991211 35.77587891 C5.12905518 34.79151855 5.09819824 33.8071582 5.06640625 32.79296875 C5.02845947 31.79958496 4.9905127 30.80620117 4.95141602 29.78271484 C4.70390927 22.90977238 4.56082584 16.04520351 4.69140625 9.16796875 C3.77617187 9.19117188 2.8609375 9.214375 1.91796875 9.23828125 C0.13519531 9.26535156 0.13519531 9.26535156 -1.68359375 9.29296875 C-3.45863281 9.32777344 -3.45863281 9.32777344 -5.26953125 9.36328125 C-8.30859375 9.16796875 -8.30859375 9.16796875 -10.30859375 7.16796875 C-10.05859375 4.10546875 -10.05859375 4.10546875 -9.30859375 1.16796875 C-6.32644849 -0.32310388 -3.27029574 0.00518339 0 0 Z " fill="#718191" transform="translate(173.30859375,18.83203125)"/>
<path d="M0 0 C3.1875 -0.3125 3.1875 -0.3125 7 0 C9.9375 2.5 9.9375 2.5 12 5 C12.39703125 4.18144531 12.7940625 3.36289063 13.203125 2.51953125 C17.75566392 -1.58156875 22.86062742 -0.52540835 28.75 -0.3125 C30.51150391 -0.27866211 30.51150391 -0.27866211 32.30859375 -0.24414062 C35.20701637 -0.1852296 38.10286427 -0.10301631 41 0 C41 1.65 41 3.3 41 5 C37.37 5 33.74 5 30 5 C30 5.99 30 6.98 30 8 C32.64 8 35.28 8 38 8 C38 9.65 38 11.3 38 13 C35.36 13 32.72 13 30 13 C30 13.99 30 14.98 30 16 C33.63 16 37.26 16 41 16 C41 17.98 41 19.96 41 22 C36.93787788 22.14547545 32.87642713 22.23413226 28.8125 22.3125 C27.66201172 22.35439453 26.51152344 22.39628906 25.32617188 22.43945312 C16.94688237 22.5608921 16.94688237 22.5608921 14.08349609 20.86474609 C12.69921875 19.48046875 12.69921875 19.48046875 11 17 C10.2265625 18.2375 10.2265625 18.2375 9.4375 19.5 C7 22 7 22 3.25 22.3125 C2.1775 22.209375 1.105 22.10625 0 22 C1.05329235 18.92789731 2.0571617 16.93303916 4.1875 14.4375 C6.1764632 12.24672784 6.1764632 12.24672784 6.0625 10.0625 C4.48320999 6.99681939 2.22903816 4.62912193 0 2 C0 1.34 0 0.68 0 0 Z M23 1 C21.78041468 2.47403117 20.59886137 3.97967239 19.4375 5.5 C18.79683594 6.3353125 18.15617187 7.170625 17.49609375 8.03125 C17.00238281 8.6809375 16.50867188 9.330625 16 10 C17.31684221 12.76843107 18.77850245 15.2577288 20.5625 17.75 C20.99691406 18.36359375 21.43132812 18.9771875 21.87890625 19.609375 C22.24886719 20.06828125 22.61882812 20.5271875 23 21 C23.33 21 23.66 21 24 21 C24 14.4 24 7.8 24 1 C23.67 1 23.34 1 23 1 Z " fill="#025F98" transform="translate(338,78)"/>
<path d="M0 0 C2.413125 -0.0825 4.82625 -0.165 7.3125 -0.25 C8.06829346 -0.28641602 8.82408691 -0.32283203 9.6027832 -0.36035156 C12.67660192 -0.41139663 14.52444748 -0.40000649 16.91796875 1.61328125 C19.14027885 6.51519992 19.2758409 11.68501689 19 17 C17.4375 20.3125 17.4375 20.3125 14 22 C9.2502264 22.38685939 4.78408284 22.22355527 0 22 C0 14.74 0 7.48 0 0 Z M5 5 C5 5.99 5 6.98 5 8 C7.31 8 9.62 8 12 8 C12 7.01 12 6.02 12 5 C9.69 5 7.38 5 5 5 Z M5 13 C5 13.99 5 14.98 5 16 C7.64 16 10.28 16 13 16 C13 15.01 13 14.02 13 13 C10.36 13 7.72 13 5 13 Z " fill="#025F98" transform="translate(279,78)"/>
<path d="M0 0 C2.3925 -0.103125 4.785 -0.20625 7.25 -0.3125 C7.99668945 -0.35802002 8.74337891 -0.40354004 9.51269531 -0.45043945 C13.24399083 -0.52821659 14.71861365 -0.25889308 17.4921875 2.29296875 C19.53153173 5.95427846 19.03461421 8.00934519 18 12 C17.01 13.485 17.01 13.485 16 15 C17.2375 16.175625 17.2375 16.175625 18.5 17.375 C21 20 21 20 21 22 C17.07387404 22.57256004 15.08011914 22.74950876 11.75390625 20.44140625 C9.76956797 18.68344524 7.85738027 16.89115082 6 15 C6 17.31 6 19.62 6 22 C4.02 22 2.04 22 0 22 C0 14.74 0 7.48 0 0 Z M6 5 C6 6.32 6 7.64 6 9 C8.31 9 10.62 9 13 9 C12.67 7.68 12.34 6.36 12 5 C10.02 5 8.04 5 6 5 Z " fill="#025F98" transform="translate(299,78)"/>
<path d="M0 0 C1.16273438 -0.01417969 2.32546875 -0.02835937 3.5234375 -0.04296875 C6.625 0.1875 6.625 0.1875 9.625 2.1875 C10.1015625 4.09765625 10.1015625 4.09765625 10.25 6.25 C10.18120816 9.95600197 10.18120816 9.95600197 11.625 11.1875 C12.18960674 17.02176966 12.18960674 17.02176966 11.625 19.1875 C7.96931412 22.16818721 5.06755192 22.55253235 0.4375 22.4375 C-0.60792969 22.42203125 -1.65335938 22.4065625 -2.73046875 22.390625 C-5.375 22.1875 -5.375 22.1875 -7.375 21.1875 C-7.40388146 17.87501813 -7.42175799 14.56256833 -7.4375 11.25 C-7.44587891 10.30447266 -7.45425781 9.35894531 -7.46289062 8.38476562 C-7.46611328 7.48564453 -7.46933594 6.58652344 -7.47265625 5.66015625 C-7.47789307 4.82750244 -7.48312988 3.99484863 -7.48852539 3.13696289 C-7.23552148 -1.20763107 -3.55706515 0.0196306 0 0 Z M-2.375 5.1875 C-2.375 6.1775 -2.375 7.1675 -2.375 8.1875 C-0.065 8.1875 2.245 8.1875 4.625 8.1875 C4.625 7.1975 4.625 6.2075 4.625 5.1875 C2.315 5.1875 0.005 5.1875 -2.375 5.1875 Z M-2.375 13.1875 C-2.375 14.5075 -2.375 15.8275 -2.375 17.1875 C0.265 17.1875 2.905 17.1875 5.625 17.1875 C5.625 15.8675 5.625 14.5475 5.625 13.1875 C2.985 13.1875 0.345 13.1875 -2.375 13.1875 Z " fill="#718191" transform="translate(237.375,77.8125)"/>
<path d="M0 0 C2.87029869 1.79393668 4.49131638 2.98263276 6 6 C6.61935091 10.99904661 6.80268427 14.77088971 4 19.0625 C-0.01096538 21.65291514 -2.21157511 22 -7 22 C-10.2488345 20.55607355 -12.74716968 18.74642798 -15 16 C-15.90906587 11.16802824 -15.69856539 7.14099014 -13.125 2.9375 C-9.14212168 -0.69394788 -5.20525336 -0.67425562 0 0 Z M-5 5 C-6.65 6.65 -8.3 8.3 -10 10 C-9.37466625 12.52363988 -9.37466625 12.52363988 -8 15 C-5.65904469 16.25153259 -5.65904469 16.25153259 -3 16 C-0.52018248 14.43695474 -0.52018248 14.43695474 1 12 C1.23901711 9.87092681 1.23901711 9.87092681 0 8 C-2.47933197 6.22851628 -2.47933197 6.22851628 -5 5 Z " fill="#025F98" transform="translate(334,78)"/>
<path d="M0 0 C3.0625 0.25 3.0625 0.25 6 1 C8.17425477 5.34850954 7.18496474 11.22357366 7.1875 16 C7.19974609 17.21429688 7.21199219 18.42859375 7.22460938 19.6796875 C7.22750977 21.41605469 7.22750977 21.41605469 7.23046875 23.1875 C7.23457764 24.25355469 7.23868652 25.31960937 7.24291992 26.41796875 C7 29 7 29 5 31 C1.375 30.625 1.375 30.625 -2 30 C-2.04939662 26.04903022 -2.08571755 22.0981797 -2.10986328 18.14697266 C-2.12488107 16.1408864 -2.15028981 14.13488676 -2.17578125 12.12890625 C-2.18544922 10.24365234 -2.18544922 10.24365234 -2.1953125 8.3203125 C-2.20578613 7.15773926 -2.21625977 5.99516602 -2.22705078 4.79736328 C-2 2 -2 2 0 0 Z " fill="#718191" transform="translate(391,19)"/>
<path d="M0 0 C1.65 0 3.3 0 5 0 C5 5.28 5 10.56 5 16 C8.96 16 12.92 16 17 16 C17 17.98 17 19.96 17 22 C11.39 22 5.78 22 0 22 C0 14.74 0 7.48 0 0 Z " fill="#025F98" transform="translate(381,78)"/>
<path d="M0 0 C2.3125 0.1875 2.3125 0.1875 5 1 C6.6875 3.5625 6.6875 3.5625 8 6 C8.66 6 9.32 6 10 6 C10.928125 4.515 10.928125 4.515 11.875 3 C12.57625 2.01 13.2775 1.02 14 0 C15.32 0 16.64 0 18 0 C18.23370726 2.87907457 18.32734755 4.49846752 16.72265625 6.95703125 C16.17480469 7.56933594 15.62695312 8.18164062 15.0625 8.8125 C11.74496478 12.91063174 11.18634903 15.7822271 11 21 C9.68 21 8.36 21 7 21 C6 20 6 20 5.75 16.375 C5.30154366 12.12606621 3.69321192 9.88574826 1.078125 6.609375 C-0.41660489 4.37811153 -0.39526373 2.60874064 0 0 Z " fill="#718191" transform="translate(250,78)"/>
<path d="M0 0 C3.4375 0.1875 3.4375 0.1875 4.4375 1.1875 C4.57865161 3.85808851 4.47997107 6.51182238 4.4375 9.1875 C1.64886993 10.58181504 -0.48328868 10.44410094 -3.5625 10.1875 C-5.71165785 6.96376323 -5.94536803 5.92046326 -5.5625 2.1875 C-3.5625 0.1875 -3.5625 0.1875 0 0 Z " fill="#718191" transform="translate(393.5625,53.8125)"/>
</svg>
