<svg fill="none" height="60" viewBox="0 0 120 60" width="120" xmlns="http://www.w3.org/2000/svg">
<path d="M38.1438 37.1423C38.1438 38.8886 39.4508 39.7649 42.064 39.7649C44.6771 39.7649 45.9777 38.8895 45.9777 37.1423V31.9091C45.9777 30.1584 44.678 29.2875 42.064 29.2875C39.4499 29.2875 38.1438 30.1584 38.1438 31.9091V37.1423ZM29.0039 31.9091C29.0039 24.9233 33.3551 21.4309 42.064 21.4309C50.7728 21.4309 55.1167 24.9233 55.1167 31.9091V37.1423C55.1167 44.1272 50.7655 47.6206 42.064 47.6206C33.3624 47.6206 29.0039 44.1272 29.0039 37.1423V31.9091Z" fill="#002378"></path>
<path d="M95.6487 37.1889C95.6487 38.9351 94.3417 39.8105 91.7368 39.8105C89.1319 39.8105 87.8167 38.9351 87.8167 37.1889V31.9557C87.8167 30.2049 89.1228 29.3341 91.7368 29.3341C94.3508 29.3341 95.6487 30.2049 95.6487 31.9557V37.1889ZM98.8214 21.4401V22.5839C96.9101 21.8505 94.5614 21.4783 91.7368 21.4783C83.0262 21.4783 78.6768 24.9717 78.6768 31.9566V37.1898C78.6768 44.1737 83.0262 47.6671 91.7368 47.6671C94.6051 47.6671 96.9931 47.2767 98.919 46.5151V47.527L104.791 47.5379V21.4392H98.8214V21.4401Z" fill="#002378"></path>
<path d="M61.463 47.6651L68.7499 34.5744L61.4694 21.4773H55.4639L62.4665 34.5717L55.4639 47.6651H61.463Z" fill="#002378"></path>
<path d="M65.829 21.4773H64.748L71.8026 34.6244L64.748 47.6651H65.829L72.8845 34.6244L65.829 21.4773Z" fill="#002378"></path>
<path d="M63.711 21.4773H62.6318L69.6946 34.6244L62.6318 47.6651H63.711L70.7756 34.6244L63.711 21.4773Z" fill="#002378"></path>
<path d="M76.7406 11H67.6016V20.9623L74.9596 34.5153L68.3052 47.5587L76.7406 47.6661V11Z" fill="#002378"></path>
<path d="M27.3776 22.0452L27.4231 29.9045H20.302V47.6661H11.1612V29.9045H4L4.04557 22.0452H27.3776Z" fill="#002378"></path>
<path d="M110.834 44.6986H111.309C111.415 44.6986 111.521 44.6904 111.62 44.6868C111.716 44.6795 111.802 44.6613 111.876 44.6222C111.952 44.5921 112.022 44.5384 112.064 44.4693C112.112 44.3956 112.135 44.3009 112.135 44.179C112.135 44.0771 112.117 43.9925 112.073 43.9306C112.026 43.866 111.972 43.8159 111.906 43.7813C111.837 43.7504 111.771 43.7286 111.688 43.7204C111.61 43.7131 111.529 43.7058 111.446 43.7058H110.833V44.6995L110.834 44.6986ZM110.365 43.3236H111.53C112.24 43.3236 112.601 43.6157 112.601 44.1981C112.601 44.4829 112.519 44.6831 112.369 44.8114C112.208 44.9443 112.022 45.0198 111.785 45.0453L112.67 46.4029H112.171L111.33 45.0771H110.834V46.4029H110.365V43.3236ZM109.211 44.8688C109.211 45.1909 109.263 45.4866 109.377 45.7578C109.49 46.0344 109.648 46.271 109.837 46.4703C110.032 46.6687 110.26 46.8315 110.524 46.9489C110.79 47.0636 111.067 47.1227 111.372 47.1227C111.676 47.1227 111.953 47.0636 112.217 46.9489C112.475 46.8315 112.708 46.6687 112.899 46.4703C113.103 46.271 113.252 46.0344 113.367 45.7578C113.479 45.4857 113.532 45.1909 113.532 44.8688C113.532 44.5466 113.479 44.2545 113.367 43.9788C113.253 43.7013 113.103 43.4638 112.899 43.2608C112.708 43.0625 112.475 42.9032 112.217 42.7895C111.953 42.6721 111.673 42.6157 111.372 42.6157C111.07 42.6157 110.79 42.6721 110.524 42.7895C110.26 42.9023 110.032 43.0625 109.837 43.2608C109.648 43.4638 109.49 43.7022 109.377 43.9788C109.263 44.2545 109.211 44.5475 109.211 44.8688ZM108.742 44.8688C108.742 44.4938 108.811 44.1453 108.953 43.8187C109.089 43.4974 109.285 43.2217 109.521 42.9869C109.761 42.7531 110.041 42.5675 110.357 42.4346C110.676 42.299 111.016 42.2299 111.372 42.2299C111.727 42.2299 112.065 42.2981 112.383 42.4346C112.7 42.5675 112.989 42.7531 113.224 42.9869C113.463 43.2217 113.653 43.4983 113.789 43.8187C113.931 44.1453 114 44.4938 114 44.8688C114 45.2437 113.931 45.5931 113.789 45.9179C113.653 46.2355 113.464 46.5167 113.224 46.7442C112.989 46.9835 112.701 47.1682 112.383 47.3002C112.066 47.4376 111.726 47.5004 111.372 47.5004C111.017 47.5004 110.676 47.4367 110.357 47.3002C110.041 47.1682 109.761 46.9835 109.521 46.7442C109.286 46.5176 109.089 46.2364 108.953 45.9179C108.811 45.5931 108.742 45.2437 108.742 44.8688Z" fill="#002378"></path>
</svg>