<?xml version="1.0" standalone="no"?>
<!DOCTYPE svg PUBLIC "-//W3C//DTD SVG 20010904//EN"
 "http://www.w3.org/TR/2001/REC-SVG-20010904/DTD/svg10.dtd">
<svg version="1.0" xmlns="http://www.w3.org/2000/svg"
 width="900.000000pt" height="500.000000pt" viewBox="0 0 900.000000 500.000000"
 preserveAspectRatio="xMidYMid meet">

<g transform="translate(0.000000,500.000000) scale(0.100000,-0.100000)"
fill="#000000" stroke="none">
<path d="M4395 4740 c-134 -11 -213 -24 -331 -59 -500 -144 -896 -508 -1083
-996 -132 -342 -141 -737 -27 -1090 194 -598 721 -1037 1345 -1121 438 -58
875 61 1226 334 602 467 802 1297 479 1990 -88 189 -182 322 -333 472 -342
338 -798 505 -1276 470z m-120 -1195 c264 -879 236 -791 245 -774 7 12 128
412 384 1261 39 131 73 238 76 238 3 0 30 -84 61 -188 74 -244 428 -1406 485
-1590 24 -78 44 -147 44 -152 0 -6 -24 -10 -53 -10 l-53 0 -18 73 c-36 138
-87 283 -141 394 -85 174 -180 257 -309 270 -155 16 -273 -86 -408 -355 l-72
-143 -70 139 c-80 156 -125 221 -197 286 -63 57 -131 80 -210 73 -191 -17
-328 -209 -440 -619 l-33 -118 -53 0 c-29 0 -53 3 -53 6 0 4 87 293 194 643
107 350 238 780 292 956 95 316 103 339 109 333 2 -2 101 -327 220 -723z"/>
<path d="M2645 921 c-174 -28 -312 -117 -366 -235 -25 -56 -24 -138 2 -192 59
-123 262 -183 469 -139 96 20 175 59 236 116 71 67 99 127 99 211 0 58 -4 72
-30 110 -37 52 -114 100 -187 116 -77 17 -166 22 -223 13z m163 -155 c67 -34
78 -120 27 -198 -66 -99 -243 -130 -314 -54 -69 74 2 233 119 264 50 13 130 8
168 -12z"/>
<path d="M4219 920 c-319 -50 -488 -324 -302 -491 113 -102 362 -118 538 -34
195 93 275 290 168 415 -74 87 -249 134 -404 110z m168 -153 c17 -9 39 -27 47
-39 33 -47 10 -143 -46 -195 -84 -78 -245 -83 -294 -9 -35 55 -5 172 57 218
62 46 172 58 236 25z"/>
<path d="M5943 921 c-88 -14 -164 -43 -227 -86 -165 -113 -204 -278 -93 -393
142 -148 500 -130 670 33 141 135 126 320 -33 399 -84 42 -218 62 -317 47z
m153 -150 c52 -24 74 -55 74 -104 0 -112 -118 -205 -245 -195 -96 8 -142 65
-123 152 29 129 174 202 294 147z"/>
<path d="M3519 902 l-335 -2 -18 -73 c-10 -39 -20 -78 -23 -84 -4 -10 23 -13
111 -13 64 0 116 -2 116 -4 0 -7 -79 -327 -86 -349 -5 -16 3 -17 102 -15 l107
3 47 180 46 180 119 5 120 5 17 84 c10 47 17 85 15 85 -1 1 -153 0 -338 -2z"/>
<path d="M1373 828 c-12 -40 -40 -136 -63 -213 -41 -140 -70 -242 -70 -251 0
-3 37 -4 82 -2 l83 3 40 137 c22 75 43 140 47 143 7 7 9 0 56 -175 l27 -105
52 -3 51 -3 123 136 c68 74 128 135 132 135 5 0 5 -10 1 -22 -4 -13 -19 -66
-35 -118 -15 -52 -30 -103 -34 -112 -7 -17 2 -18 104 -18 l110 0 11 43 c7 23
23 83 37 132 14 50 31 113 39 140 7 28 24 89 38 138 l24 87 -146 0 -147 -1
-93 -109 c-51 -61 -96 -110 -100 -110 -7 0 -12 15 -51 148 l-22 72 -138 0
-138 0 -20 -72z"/>
<path d="M4837 893 c-7 -12 -147 -510 -147 -522 0 -8 30 -11 96 -9 l97 3 22
75 22 75 103 3 c126 3 135 -2 126 -74 -9 -78 1 -84 132 -84 l107 0 3 87 c2 69
-1 90 -14 105 -10 10 -23 18 -31 18 -7 0 -13 7 -13 15 0 8 6 15 13 15 23 0 96
58 117 93 22 35 27 115 10 147 -5 10 -25 28 -44 39 -32 20 -47 21 -314 21
-154 0 -283 -3 -285 -7z m431 -125 c20 -20 13 -55 -14 -77 -24 -19 -40 -21
-151 -21 -114 0 -124 1 -119 18 3 9 8 31 12 47 4 17 9 33 11 38 7 13 248 8
261 -5z"/>
<path d="M6550 894 c0 -4 -23 -95 -51 -203 -28 -108 -59 -226 -68 -264 l-18
-67 275 2 274 3 19 70 c10 39 19 71 19 73 0 1 -76 2 -170 2 -93 0 -170 3 -170
8 0 4 22 91 48 195 l49 187 -104 0 c-57 0 -103 -3 -103 -6z"/>
<path d="M7234 638 c-99 -144 -180 -265 -182 -270 -2 -4 36 -8 85 -8 l88 0 33
50 32 50 135 0 c101 0 135 -3 135 -12 0 -7 5 -30 11 -50 l10 -38 106 0 c104 0
105 0 100 23 -4 12 -18 74 -32 137 -14 63 -40 175 -56 248 l-31 132 -128 0
-128 0 -178 -262z m282 -20 l7 -38 -72 0 c-39 0 -71 2 -71 5 0 3 23 41 52 83
l52 77 13 -45 c7 -25 16 -62 19 -82z"/>
</g>
</svg>
