<?xml version="1.0" standalone="no"?>
<!DOCTYPE svg PUBLIC "-//W3C//DTD SVG 20010904//EN"
 "http://www.w3.org/TR/2001/REC-SVG-20010904/DTD/svg10.dtd">
<svg version="1.0" xmlns="http://www.w3.org/2000/svg"
 width="376.000000pt" height="146.000000pt" viewBox="0 0 376.000000 146.000000"
 preserveAspectRatio="xMidYMid meet">

<g transform="translate(0.000000,146.000000) scale(0.100000,-0.100000)"
fill="#000000" stroke="none">
<path d="M483 1430 c-40 -24 -53 -48 -53 -101 0 -130 177 -239 296 -183 37 18
64 58 64 96 -1 37 -35 100 -76 140 -68 65 -169 86 -231 48z"/>
<path d="M903 1103 l-143 -77 58 -28 c31 -15 92 -57 134 -93 l78 -66 87 66
c49 37 92 76 96 88 26 67 -68 187 -145 187 -13 0 -87 -35 -165 -77z"/>
<path d="M112 1077 c-79 -25 -126 -111 -103 -187 32 -106 90 -132 346 -153
104 -9 193 -13 197 -9 3 4 23 57 43 119 28 88 43 118 66 138 20 16 26 26 17
29 -26 8 -493 76 -513 75 -11 -1 -35 -6 -53 -12z"/>
<path d="M2786 971 c-21 -3 -43 -13 -47 -21 -7 -13 -119 -643 -119 -670 0 -5
23 -10 53 -10 l53 0 58 328 c31 180 60 339 63 355 6 29 7 29 -61 18z"/>
<path d="M1660 949 c-124 -14 -180 -84 -180 -227 0 -95 27 -122 174 -166 38
-12 74 -29 79 -38 8 -11 7 -33 -2 -73 -11 -50 -17 -58 -47 -71 -43 -18 -101
-18 -189 1 -38 8 -71 15 -72 15 -3 0 -23 -74 -23 -86 0 -32 229 -57 313 -33
85 23 134 103 140 226 4 88 -31 121 -169 162 -40 12 -77 28 -84 36 -15 18 -5
105 15 131 17 23 133 31 219 15 33 -6 60 -10 62 -8 1 1 5 23 9 49 l7 46 -54
10 c-78 15 -136 19 -198 11z"/>
<path d="M2058 893 c-37 -4 -37 -5 -49 -64 l-12 -59 -42 0 c-41 0 -43 -1 -49
-37 -10 -62 -9 -63 35 -63 38 0 41 -2 36 -22 -18 -73 -49 -269 -49 -303 1 -74
76 -105 182 -75 60 17 63 22 49 69 -9 32 -16 40 -28 35 -33 -13 -91 -17 -91
-6 0 6 11 76 25 154 14 78 25 144 25 145 0 2 27 3 60 3 65 0 71 5 85 68 l7 32
-67 0 -67 0 6 38 c4 20 9 49 12 65 6 29 10 28 -68 20z"/>
<path d="M601 799 c-7 -24 -14 -51 -17 -61 -4 -13 5 -17 55 -20 l60 -3 -33 35
c-19 19 -38 48 -43 64 l-9 29 -13 -44z"/>
<path d="M2307 773 c-21 -2 -40 -10 -43 -17 -4 -12 60 -449 72 -487 6 -20 -65
-86 -107 -101 -33 -11 -35 -24 -15 -73 l15 -34 38 15 c59 25 118 70 153 116
17 24 76 135 131 247 94 192 99 207 99 266 0 35 -4 66 -9 69 -4 3 -28 2 -52
-2 l-44 -8 -2 -51 c-1 -40 -15 -82 -59 -178 -32 -69 -61 -122 -65 -117 -3 4
-16 79 -28 167 -25 175 -29 196 -39 193 -4 -1 -24 -3 -45 -5z"/>
<path d="M2967 765 c-82 -29 -115 -84 -142 -233 -37 -201 8 -272 170 -272 98
0 166 35 202 103 17 34 53 212 53 265 0 91 -74 152 -185 152 -33 -1 -77 -7
-98 -15z m151 -101 c27 -18 27 -40 6 -159 -22 -115 -47 -145 -123 -145 -85 0
-93 23 -65 171 17 91 33 125 67 139 35 14 91 11 115 -6z"/>
<path d="M3371 763 c-49 -26 -71 -61 -77 -124 -7 -70 16 -107 88 -148 90 -50
99 -59 92 -89 -4 -15 -12 -31 -18 -35 -12 -9 -152 -3 -177 7 -12 5 -18 -3 -28
-34 -6 -22 -10 -44 -7 -49 10 -15 93 -31 161 -31 111 0 155 32 176 129 16 78
-2 108 -100 167 -68 41 -81 53 -81 74 0 14 5 31 12 38 14 14 106 16 159 3 l36
-8 10 44 c9 40 8 45 -10 55 -12 6 -62 13 -112 15 -73 4 -96 1 -124 -14z"/>
<path d="M561 665 c-5 -16 -30 -96 -55 -176 -60 -191 -60 -247 -3 -332 46 -68
166 -87 236 -38 49 35 71 91 106 280 28 145 31 177 20 185 -7 6 -38 30 -68 54
-52 40 -60 43 -141 50 l-86 8 -9 -31z"/>
<path d="M3656 369 c-29 -23 -33 -54 -10 -87 31 -45 114 -15 114 42 0 25 -41
66 -65 66 -7 0 -24 -9 -39 -21z m72 -11 c19 -19 14 -55 -10 -72 -28 -20 -33
-20 -52 0 -32 31 -14 84 29 84 12 0 26 -5 33 -12z"/>
<path d="M3676 344 c-11 -28 -6 -40 14 -40 21 0 36 28 25 46 -9 15 -32 12 -39
-6z"/>
<path d="M3421 218 c-5 -13 -15 -52 -21 -88 -6 -36 -13 -77 -16 -93 -4 -20 -2
-27 9 -27 10 0 17 15 22 48 7 56 12 65 42 81 40 20 46 15 38 -36 -3 -27 -9
-58 -12 -70 -4 -16 -1 -23 9 -23 11 0 18 21 27 71 6 38 9 74 6 80 -9 13 -59
11 -73 -3 -13 -13 -15 -9 -12 45 2 42 -6 48 -19 15z"/>
<path d="M3015 190 c-3 -11 -13 -20 -21 -20 -8 0 -14 -4 -14 -10 0 -5 5 -10
11 -10 8 0 9 -21 4 -69 -7 -74 0 -86 44 -74 29 7 26 23 -4 23 -22 0 -24 3 -18
33 14 70 20 82 41 85 28 4 29 22 2 22 -13 0 -20 7 -20 20 0 11 -4 20 -9 20 -5
0 -13 -9 -16 -20z"/>
<path d="M3126 152 c-10 -12 -20 -43 -23 -74 -7 -70 9 -87 67 -69 54 16 51 30
-5 23 -62 -7 -61 18 3 49 40 21 47 28 47 54 0 27 -3 30 -36 33 -25 2 -40 -3
-53 -16z m69 -22 c0 -16 -52 -46 -62 -36 -4 3 -1 17 5 32 9 18 19 24 35 22 12
-2 22 -10 22 -18z"/>
<path d="M3276 151 c-11 -12 -20 -43 -23 -79 -5 -54 -4 -60 15 -66 24 -8 72 2
72 15 0 5 -16 9 -35 9 l-35 0 6 43 c10 62 20 77 54 77 17 0 30 5 30 10 0 18
-66 11 -84 -9z"/>
</g>
</svg>
