<?xml version="1.0" standalone="no"?>
<!DOCTYPE svg PUBLIC "-//W3C//DTD SVG 20010904//EN"
 "http://www.w3.org/TR/2001/REC-SVG-20010904/DTD/svg10.dtd">
<svg version="1.0" xmlns="http://www.w3.org/2000/svg"
 width="920.000000pt" height="447.000000pt" viewBox="0 0 920.000000 447.000000"
 preserveAspectRatio="xMidYMid meet">

<g transform="translate(0.000000,447.000000) scale(0.100000,-0.100000)"
fill="#000000" stroke="none">
<path d="M6815 2798 c-64 -35 -91 -93 -75 -163 13 -58 29 -65 145 -65 118 0
134 9 142 82 11 94 -48 158 -142 158 -27 0 -59 -6 -70 -12z"/>
<path d="M6442 2740 l-102 -49 0 -645 0 -646 24 -15 c18 -12 45 -15 107 -13
l84 3 3 699 c1 385 -2 704 -6 708 -5 5 -54 -14 -110 -42z"/>
<path d="M8427 2738 l-108 -52 3 -644 c3 -749 -11 -672 129 -672 105 0 97 -22
99 255 0 109 2 201 4 203 2 2 90 -101 195 -227 l191 -231 125 0 c68 0 126 4
129 9 3 4 -92 119 -210 255 -119 136 -214 252 -211 259 2 7 88 109 191 229
102 119 186 219 186 222 0 3 -57 6 -127 6 l-128 0 -169 -201 c-92 -110 -170
-199 -172 -197 -2 2 -4 154 -6 338 -1 184 -5 372 -8 418 l-5 83 -108 -53z"/>
<path d="M4025 2594 c-50 -25 -94 -49 -98 -53 -5 -5 -8 -220 -8 -479 1 -450 2
-473 21 -525 25 -66 76 -116 146 -143 42 -16 76 -19 229 -19 l180 0 3 93 3 92
-66 1 c-36 1 -69 3 -75 4 -5 1 -41 3 -80 4 -61 1 -73 4 -101 29 l-31 28 -5
260 -6 261 54 6 c30 4 94 7 142 7 l88 0 -3 93 -3 92 -128 6 c-70 4 -131 10
-135 14 -8 8 -9 24 -11 170 -1 79 -4 105 -14 105 -7 0 -53 -21 -102 -46z"/>
<path d="M7511 2364 c-81 -22 -181 -78 -243 -138 -52 -49 -56 -56 -60 -107 -8
-89 -2 -703 6 -721 10 -22 53 -30 141 -26 l70 3 5 352 5 351 39 31 c52 41 134
65 202 58 87 -9 156 -55 197 -132 21 -38 22 -57 28 -350 3 -170 6 -311 7 -312
1 -2 49 -3 107 -3 l105 0 0 315 c0 293 -1 320 -21 378 -51 155 -177 271 -330
306 -63 15 -195 12 -258 -5z"/>
<path d="M4960 2354 c-96 -25 -197 -81 -271 -152 l-70 -65 3 -548 c4 -648 -9
-591 127 -587 l86 3 7 40 c3 22 7 256 7 520 l1 479 27 28 c40 42 123 79 191
85 122 11 226 -46 279 -155 24 -48 28 -69 28 -137 -1 -102 -28 -168 -96 -229
-56 -50 -95 -63 -229 -71 -52 -4 -99 -10 -103 -14 -4 -4 -7 -46 -5 -92 l3 -84
95 -3 c165 -5 278 26 386 108 177 134 229 414 117 634 -32 63 -132 163 -199
198 -105 57 -264 74 -384 42z"/>
<path d="M6772 1874 c4 -557 -9 -506 128 -502 l85 3 3 488 2 487 -110 0 -111
0 3 -476z"/>
<path d="M5771 1971 c-20 -13 74 -209 103 -217 12 -2 77 -3 146 -2 l125 3 3
112 3 111 -183 1 c-101 1 -189 -3 -197 -8z"/>
</g>
</svg>
