<?xml version="1.0" encoding="UTF-8"?>
<svg version="1.1" xmlns="http://www.w3.org/2000/svg" width="190" height="92">
<path d="M0 0 C62.7 0 125.4 0 190 0 C190 30.36 190 60.72 190 92 C127.3 92 64.6 92 0 92 C0 61.64 0 31.28 0 0 Z " fill="#FBFBFB" transform="translate(0,0)"/>
<path d="M0 0 C8.58 0 17.16 0 26 0 C26 1.32 26 2.64 26 4 C18.74 4.33 11.48 4.66 4 5 C2.35 8.96 0.7 12.92 -1 17 C0.55847656 17.05607422 0.55847656 17.05607422 2.1484375 17.11328125 C20.80823131 17.93285218 20.80823131 17.93285218 26.76171875 22.2890625 C28.48984036 24.67681413 28.42422139 26.11529453 28 29 C22.81980472 36.97223273 11.46343321 39.88939668 3 43 C1.67355469 43.495 1.67355469 43.495 0.3203125 44 C-13.8984375 49 -13.8984375 49 -21 49 C-18.8197371 42.12052968 -16.19745965 35.54944102 -13.3125 28.9375 C-12.89677734 27.97650391 -12.48105469 27.01550781 -12.05273438 26.02539062 C-11.03849422 23.68214613 -10.01971939 21.34086527 -9 19 C-14.61 19 -20.22 19 -26 19 C-26 18.34 -26 17.68 -26 17 C-19.73 17 -13.46 17 -7 17 C-6.01 14.03 -5.02 11.06 -4 8 C-2.68 5.36 -1.36 2.72 0 0 Z " fill="#111111" transform="translate(93,6)"/>
<path d="M0 0 C9.23324143 -0.44201688 19.0724685 -0.285021 27 5 C25.9574168 8.02349127 25.12578605 8.92686857 22.3125 10.5625 C20.6728125 11.2740625 20.6728125 11.2740625 19 12 C17.82824219 12.51046875 16.65648437 13.0209375 15.44921875 13.546875 C14.31097656 14.02640625 13.17273438 14.5059375 12 15 C10.64841797 15.59554687 10.64841797 15.59554687 9.26953125 16.203125 C3.61907874 18.610631 -1.9419253 20.02039643 -8 21 C-5.72564796 13.81783567 -2.96415819 6.9241798 0 0 Z " fill="#F4F4F4" transform="translate(90,26)"/>
<path d="M0 0 C-0.25561323 2.3431213 -0.59270772 4.67843403 -1 7 C-1.99 7.495 -1.99 7.495 -3 8 C-3.66 6.35 -4.32 4.7 -5 3 C-11.24208718 2.49660153 -11.24208718 2.49660153 -16.9375 4.75 C-20.44393342 8.57520009 -21.27818336 11.3838068 -21.25 16.5625 C-21.25515625 17.51253906 -21.2603125 18.46257812 -21.265625 19.44140625 C-21.17576075 22.24099273 -21.17576075 22.24099273 -19 25 C-16.80545319 25.57993699 -16.80545319 25.57993699 -14.375 25.6875 C-12.93125 25.790625 -11.4875 25.89375 -10 26 C-9.34 22.37 -8.68 18.74 -8 15 C-8.99 14.67 -9.98 14.34 -11 14 C-7.37 14 -3.74 14 0 14 C-0.99 14.66 -1.98 15.32 -3 16 C-3.88597363 18.53379899 -4.45446885 21.07342494 -5.05859375 23.6875 C-6 26 -6 26 -7.7890625 27.2890625 C-11.83723592 28.59077198 -15.80726799 28.56401419 -20 28 C-23.39488422 25.94892412 -24.80323081 24.29515379 -27 21 C-27.68817311 15.19968377 -26.99584964 11.61553537 -23.58984375 6.83203125 C-16.90147812 -0.87520089 -9.77291591 -0.61767025 0 0 Z " fill="#282828" transform="translate(118,59)"/>
<path d="M0 0 C5.61 0 11.22 0 17 0 C17 1.98 17 3.96 17 6 C16.34 6 15.68 6 15 6 C15 4.68 15 3.36 15 2 C11.7 1.67 8.4 1.34 5 1 C4.34 4.3 3.68 7.6 3 11 C5.97065509 10.65772428 5.97065509 10.65772428 9 10 C9.33 9.34 9.66 8.68 10 8 C10.66 8.33 11.32 8.66 12 9 C11.01 11.97 10.02 14.94 9 18 C8.34 16.68 7.68 15.36 7 14 C5.35 14 3.7 14 2 14 C0.515 19.445 0.515 19.445 -1 25 C5.36946479 24.61397183 8.99614939 23.97741972 14 20 C13.67 22.31 13.34 24.62 13 27 C5.74 27 -1.52 27 -9 27 C-9 26.34 -9 25.68 -9 25 C-7.68 25 -6.36 25 -5 25 C-4.9175 24.113125 -4.835 23.22625 -4.75 22.3125 C-4.07617008 17.39454732 -2.40629106 12.77970489 -0.83984375 8.0859375 C0.21883385 4.72894263 0.21883385 4.72894263 0 0 Z " fill="#1B1B1B" transform="translate(10,60)"/>
<path d="M0 0 C0.33 0 0.66 0 1 0 C1.3189892 8.77220291 0.11636806 17.31824479 -1 26 C-0.01 26 0.98 26 2 26 C2 26.66 2 27.32 2 28 C-1.3 28 -4.6 28 -8 28 C-8 27.34 -8 26.68 -8 26 C-7.01 25.67 -6.02 25.34 -5 25 C-4.67 23.02 -4.34 21.04 -4 19 C-5.27875 19.103125 -6.5575 19.20625 -7.875 19.3125 C-8.59429687 19.37050781 -9.31359375 19.42851563 -10.0546875 19.48828125 C-12.39519216 19.87393036 -12.39519216 19.87393036 -14 23 C-14.16713569 25.62531524 -14.16713569 25.62531524 -14 28 C-16.64 28 -19.28 28 -22 28 C-22 27.34 -22 26.68 -22 26 C-21.24605957 25.55261475 -20.49211914 25.10522949 -19.71533203 24.64428711 C-16.84648682 22.90703909 -15.49323479 21.39492657 -13.5546875 18.69140625 C-12.95269531 17.86189453 -12.35070312 17.03238281 -11.73046875 16.17773438 C-10.81201172 14.88319336 -10.81201172 14.88319336 -9.875 13.5625 C-9.25496094 12.70333984 -8.63492188 11.84417969 -7.99609375 10.95898438 C-6.84191979 9.35927444 -5.69156609 7.75679591 -4.54638672 6.15063477 C-4.0360791 5.44092529 -3.52577148 4.73121582 -3 4 C-2.19006592 2.87259399 -2.19006592 2.87259399 -1.36376953 1.72241211 C-0.91372559 1.15401611 -0.46368164 0.58562012 0 0 Z " fill="#303030" transform="translate(138,59)"/>
<path d="M0 0 C5.61 0 11.22 0 17 0 C17 1.98 17 3.96 17 6 C16.34 6 15.68 6 15 6 C15 4.68 15 3.36 15 2 C11.7 1.67 8.4 1.34 5 1 C4.34 4.3 3.68 7.6 3 11 C7.47883696 10.55296014 7.47883696 10.55296014 11 8 C10.4140625 14.15234375 10.4140625 14.15234375 10 16 C9.34 16.33 8.68 16.66 8 17 C7.67 16.01 7.34 15.02 7 14 C5.35 14 3.7 14 2 14 C0.515 19.445 0.515 19.445 -1 25 C5.36946479 24.61397183 8.99614939 23.97741972 14 20 C13.34 22.31 12.68 24.62 12 27 C5.07 27 -1.86 27 -9 27 C-9 26.34 -9 25.68 -9 25 C-8.01 24.67 -7.02 24.34 -6 24 C-5.02460405 22.06378288 -5.02460405 22.06378288 -4.39453125 19.66796875 C-4.13349609 18.78689453 -3.87246094 17.90582031 -3.60351562 16.99804688 C-3.34248047 16.07056641 -3.08144531 15.14308594 -2.8125 14.1875 C-2.40354492 12.81368164 -2.40354492 12.81368164 -1.98632812 11.41210938 C-0.8173627 7.38957922 0 4.23071105 0 0 Z " fill="#343434" transform="translate(58,60)"/>
<path d="M0 0 C5.61 0 11.22 0 17 0 C17 1.65 17 3.3 17 5 C16.01 5.495 16.01 5.495 15 6 C14.76539063 5.35546875 14.53078125 4.7109375 14.2890625 4.046875 C13.18838927 1.7922092 13.18838927 1.7922092 10.8359375 1.390625 C9.61777344 1.32101563 9.61777344 1.32101563 8.375 1.25 C7.14910156 1.16492187 7.14910156 1.16492187 5.8984375 1.078125 C5.27195313 1.05234375 4.64546875 1.0265625 4 1 C3.93941406 1.62648437 3.87882813 2.25296875 3.81640625 2.8984375 C3.73261719 3.71570312 3.64882812 4.53296875 3.5625 5.375 C3.48128906 6.18710938 3.40007812 6.99921875 3.31640625 7.8359375 C3 10 3 10 2 12 C5.40312738 10.94124926 8.01353231 9.99097846 11 8 C10.34 11.3 9.68 14.6 9 18 C8.34 18 7.68 18 7 18 C7 16.35 7 14.7 7 13 C5.02 13 3.04 13 1 13 C0.01 16.96 -0.98 20.92 -2 25 C6.98839035 24.27508196 6.98839035 24.27508196 14 19 C13.34 21.64 12.68 24.28 12 27 C5.07 27 -1.86 27 -9 27 C-9 26.34 -9 25.68 -9 25 C-8.01 25 -7.02 25 -6 25 C-2.84783473 12.53614453 -2.84783473 12.53614453 0 0 Z " fill="#191919" transform="translate(173,60)"/>
<path d="M0 0 C6.93 0 13.86 0 21 0 C20.67 2.31 20.34 4.62 20 7 C19.01 7.495 19.01 7.495 18 8 C18 6.35 18 4.7 18 3 C16.02 3.33 14.04 3.66 12 4 C8.55633511 14.81765651 8.55633511 14.81765651 7 26 C7.66 26.66 8.32 27.32 9 28 C5.37 28 1.74 28 -2 28 C-1.01 27.01 -0.02 26.02 1 25 C2.12439434 22.39197925 2.12439434 22.39197925 3 19.4375 C3.33515625 18.37917969 3.6703125 17.32085937 4.015625 16.23046875 C4.34046875 15.16441406 4.6653125 14.09835938 5 13 C5.30421875 12.00613281 5.6084375 11.01226562 5.921875 9.98828125 C6.62544166 7.66186507 7.31867807 5.33301145 8 3 C3.03088634 4.12697043 3.03088634 4.12697043 -1 7 C-0.67 4.69 -0.34 2.38 0 0 Z " fill="#161616" transform="translate(147,59)"/>
<path d="M0 0 C3.63 0 7.26 0 11 0 C11 0.66 11 1.32 11 2 C9.68 2 8.36 2 7 2 C6.83177734 2.93392578 6.83177734 2.93392578 6.66015625 3.88671875 C5.73784778 8.23630366 4.58115287 12.51659385 3.4375 16.8125 C3.20353516 17.69615234 2.96957031 18.57980469 2.72851562 19.49023438 C2.15368438 21.66051561 1.57747279 23.83042042 1 26 C7.79037381 25.1341519 7.79037381 25.1341519 13.625 21.875 C14.305625 20.946875 14.305625 20.946875 15 20 C14.125 25.75 14.125 25.75 13 28 C6.4 28 -0.2 28 -7 28 C-7 27.34 -7 26.68 -7 26 C-6.01 25.67 -5.02 25.34 -4 25 C-2.92595053 22.70364055 -2.92595053 22.70364055 -2.17578125 19.87109375 C-1.86962891 18.83662109 -1.56347656 17.80214844 -1.24804688 16.73632812 C-0.93931641 15.64771484 -0.63058594 14.55910156 -0.3125 13.4375 C0.00783203 12.34501953 0.32816406 11.25253906 0.65820312 10.12695312 C1.44990511 7.42098665 2.22992044 4.71218418 3 2 C2.01 2 1.02 2 0 2 C0 1.34 0 0.68 0 0 Z " fill="#373737" transform="translate(33,59)"/>
<path d="M0 0 C1.41898766 2.64877696 2.31911019 5.08014819 3 8 C9.79037381 7.1341519 9.79037381 7.1341519 15.625 3.875 C16.07875 3.25625 16.5325 2.6375 17 2 C16.125 7.75 16.125 7.75 15 10 C8.4 10 1.8 10 -5 10 C-5 9.34 -5 8.68 -5 8 C-4.01 7.67 -3.02 7.34 -2 7 C-0.77030122 3.48809191 -0.77030122 3.48809191 0 0 Z " fill="#4C4C4C" transform="translate(31,77)"/>
<path d="M0 0 C1.26328125 0.01804688 2.5265625 0.03609375 3.828125 0.0546875 C4.79234375 0.07789063 5.7565625 0.10109375 6.75 0.125 C6.49438677 2.4681213 6.15729228 4.80343403 5.75 7.125 C4.76 7.62 4.76 7.62 3.75 8.125 C3.09 6.475 2.43 4.825 1.75 3.125 C-4.46932352 2.61023048 -4.46932352 2.61023048 -10.125 4.875 C-12.26561357 7.04314244 -12.26561357 7.04314244 -13.875 9.375 C-14.32875 9.9525 -14.7825 10.53 -15.25 11.125 C-16.24 11.125 -17.23 11.125 -18.25 11.125 C-16.67778314 5.97956301 -13.95168427 3.87060878 -9.5390625 1.01953125 C-6.30769074 -0.24324031 -3.45360094 -0.06395557 0 0 Z " fill="#1C1C1C" transform="translate(111.25,58.875)"/>
<path d="M0 0 C1.20628008 2.33214148 2.1654738 4.49642139 3 7 C9.2049038 6.7242265 13.10160999 5.89359206 18 2 C17.67 4.31 17.34 6.62 17 9 C9.74 9 2.48 9 -5 9 C-5 8.34 -5 7.68 -5 7 C-3.68 7 -2.36 7 -1 7 C-0.67 4.69 -0.34 2.38 0 0 Z " fill="#4F4F4F" transform="translate(6,78)"/>
<path d="M0 0 C5.61 0 11.22 0 17 0 C17 1.98 17 3.96 17 6 C16.34 6 15.68 6 15 6 C15 4.68 15 3.36 15 2 C11.7 1.67 8.4 1.34 5 1 C4.814375 2.3303125 4.814375 2.3303125 4.625 3.6875 C4.05587264 6.70387502 3.23385564 9.20326054 2 12 C1.01 12 0.02 12 -1 12 C-0.67 8.04 -0.34 4.08 0 0 Z " fill="#191919" transform="translate(58,60)"/>
<path d="M0 0 C0.33 0.66 0.66 1.32 1 2 C0.34 3.98 -0.32 5.96 -1 8 C-7.93 8 -14.86 8 -22 8 C-22 7.34 -22 6.68 -22 6 C-20.89140625 5.95101562 -19.7828125 5.90203125 -18.640625 5.8515625 C-17.17705935 5.77650785 -15.71351888 5.70096119 -14.25 5.625 C-13.15558594 5.57859375 -13.15558594 5.57859375 -12.0390625 5.53125 C-6.7013827 5.27401185 -6.7013827 5.27401185 -2 3 C-1.34 2.01 -0.68 1.02 0 0 Z " fill="#4A4A4A" transform="translate(186,79)"/>
<path d="M0 0 C3.63 0 7.26 0 11 0 C10.01 0.66 9.02 1.32 8 2 C6.98675674 4.40972598 6.98675674 4.40972598 6.3125 7.125 C6.06113281 8.03507812 5.80976562 8.94515625 5.55078125 9.8828125 C5.36902344 10.58148438 5.18726562 11.28015625 5 12 C4.01 12 3.02 12 2 12 C2.33 8.37 2.66 4.74 3 1 C2.01 0.67 1.02 0.34 0 0 Z " fill="#161616" transform="translate(107,73)"/>
<path d="M0 0 C2.37706418 3.66539668 2.05094317 6.49056835 1.625 10.75 C1.51414063 11.92046875 1.40328125 13.0909375 1.2890625 14.296875 C1.19367188 15.18890625 1.09828125 16.0809375 1 17 C-0.98 17 -2.96 17 -5 17 C-4.80664062 16.443125 -4.61328125 15.88625 -4.4140625 15.3125 C-2.68625575 10.24882873 -1.2306933 5.20677935 0 0 Z " fill="#202020" transform="translate(171,69)"/>
<path d="M0 0 C5.61 0 11.22 0 17 0 C17 1.98 17 3.96 17 6 C16.34 6 15.68 6 15 6 C15 4.68 15 3.36 15 2 C11.7 1.67 8.4 1.34 5 1 C4.67 3.31 4.34 5.62 4 8 C3.34 7.34 2.68 6.68 2 6 C1.01 6.495 1.01 6.495 0 7 C0 4.69 0 2.38 0 0 Z " fill="#1D1D1D" transform="translate(10,60)"/>
<path d="M0 0 C6.93 0 13.86 0 21 0 C20.67 2.31 20.34 4.62 20 7 C19.01 7.495 19.01 7.495 18 8 C18 6.35 18 4.7 18 3 C16.02 3 14.04 3 12 3 C12 2.67 12 2.34 12 2 C8.04 1.67 4.08 1.34 0 1 C0 0.67 0 0.34 0 0 Z " fill="#727272" transform="translate(147,59)"/>
<path d="M0 0 C0.12375 1.11375 0.2475 2.2275 0.375 3.375 C0.6465813 7.03103677 0.6465813 7.03103677 3 9 C-0.63 9 -4.26 9 -8 9 C-7.01 8.01 -6.02 7.02 -5 6 C-4.32650839 4.33607955 -3.6590841 2.66967972 -3 1 C-1 0 -1 0 0 0 Z " fill="#313131" transform="translate(153,78)"/>
<path d="M0 0 C3.63 0 7.26 0 11 0 C11 0.66 11 1.32 11 2 C9.68 2 8.36 2 7 2 C6.67 3.65 6.34 5.3 6 7 C5.01 7 4.02 7 3 7 C2.67 6.34 2.34 5.68 2 5 C2.33 4.01 2.66 3.02 3 2 C2.01 2 1.02 2 0 2 C0 1.34 0 0.68 0 0 Z " fill="#454545" transform="translate(33,59)"/>
<path d="M0 0 C0.33 0 0.66 0 1 0 C1.18451025 9.41002278 1.18451025 9.41002278 0 14 C-0.99 13.34 -1.98 12.68 -3 12 C-2.67 10.35 -2.34 8.7 -2 7 C-2.66 7 -3.32 7 -4 7 C-2.79618552 4.50638429 -1.54571278 2.31856917 0 0 Z " fill="#191919" transform="translate(138,59)"/>
<path d="M0 0 C4.62 0 9.24 0 14 0 C13.74438677 2.3431213 13.40729228 4.67843403 13 7 C12.01 7.495 12.01 7.495 11 8 C10.855625 7.21625 10.71125 6.4325 10.5625 5.625 C9.28463143 2.84843237 9.28463143 2.84843237 6.86328125 2.22265625 C4.58025309 1.73164391 2.31304073 1.31887599 0 1 C0 0.67 0 0.34 0 0 Z " fill="#3C3C3C" transform="translate(104,59)"/>
<path d="M0 0 C3.3 0 6.6 0 10 0 C10 0.99 10 1.98 10 3 C6.37 3 2.74 3 -1 3 C-0.67 2.01 -0.34 1.02 0 0 Z " fill="#2D2D2D" transform="translate(77,76)"/>
<path d="M0 0 C0.33 0 0.66 0 1 0 C0.67 2.97 0.34 5.94 0 9 C-1.98 9 -3.96 9 -6 9 C-5.02501855 7.4972763 -4.04490611 5.99788037 -3.0625 4.5 C-2.51722656 3.6646875 -1.97195312 2.829375 -1.41015625 1.96875 C-0.94480469 1.3190625 -0.47945312 0.669375 0 0 Z " fill="#E3E3E3" transform="translate(134,67)"/>
<path d="M0 0 C0.70189453 0.06123047 1.40378906 0.12246094 2.12695312 0.18554688 C3.8567967 0.33852624 5.58488497 0.51112602 7.3125 0.6875 C7.3125 1.0175 7.3125 1.3475 7.3125 1.6875 C1.28653427 2.7587828 -4.57659517 2.78695415 -10.6875 2.6875 C-7.9613524 -1.37560888 -4.3364724 -0.4575363 0 0 Z " fill="#383838" transform="translate(100.6875,23.3125)"/>
<path d="M0 0 C0.66 0.99 1.32 1.98 2 3 C2.99 3.33 3.98 3.66 5 4 C5 4.66 5 5.32 5 6 C1.7 6 -1.6 6 -5 6 C-5 5.34 -5 4.68 -5 4 C-4.01 3.67 -3.02 3.34 -2 3 C-1.34 2.01 -0.68 1.02 0 0 Z " fill="#3F3F3F" transform="translate(135,81)"/>
<path d="M0 0 C0.66 0.33 1.32 0.66 2 1 C1.01 3.97 0.02 6.94 -1 10 C-3 6 -3 6 -3 5 C-4.65 4.67 -6.3 4.34 -8 4 C-7.67 3.34 -7.34 2.68 -7 2 C-5.02 2 -3.04 2 -1 2 C-0.67 1.34 -0.34 0.68 0 0 Z " fill="#545454" transform="translate(20,68)"/>
<path d="M0 0 C0.33 0.99 0.66 1.98 1 3 C0.34 4.32 -0.32 5.64 -1 7 C-4.63 7 -8.26 7 -12 7 C-12 6.67 -12 6.34 -12 6 C-11.07767578 5.85304688 -11.07767578 5.85304688 -10.13671875 5.703125 C-5.00590695 4.86708954 -5.00590695 4.86708954 -0.9375 1.875 C-0.628125 1.25625 -0.31875 0.6375 0 0 Z " fill="#262626" transform="translate(47,79)"/>
<path d="M0 0 C-0.33 2.97 -0.66 5.94 -1 9 C-1.99 8.67 -2.98 8.34 -4 8 C-3.74438677 5.6568787 -3.40729228 3.32156597 -3 1 C-1 0 -1 0 0 0 Z " fill="#111111" transform="translate(155,71)"/>
<path d="M0 0 C0.33 1.98 0.66 3.96 1 6 C-0.98 6 -2.96 6 -5 6 C-2.84615385 0 -2.84615385 0 0 0 Z " fill="#0D0D0D" transform="translate(171,80)"/>
<path d="M0 0 C1.27351308 2.54702616 0.80191925 3.4282945 0.0625 6.125 C-0.13214844 6.84945312 -0.32679688 7.57390625 -0.52734375 8.3203125 C-0.68332031 8.87460938 -0.83929688 9.42890625 -1 10 C-1.66 10 -2.32 10 -3 10 C-3.36923077 3.47692308 -3.36923077 3.47692308 -1.5 1.0625 C-1.005 0.711875 -0.51 0.36125 0 0 Z " fill="#484848" transform="translate(183,68)"/>
<path d="M0 0 C0.33 0 0.66 0 1 0 C0.67 2.64 0.34 5.28 0 8 C-0.99 8 -1.98 8 -3 8 C-2.25 2.25 -2.25 2.25 0 0 Z " fill="#0C0C0C" transform="translate(60,64)"/>
<path d="M0 0 C0.125 2.875 0.125 2.875 0 6 C-0.66 6.66 -1.32 7.32 -2 8 C-3 7 -3 7 -3.0625 3.9375 C-3.041875 2.968125 -3.02125 1.99875 -3 1 C-1 0 -1 0 0 0 Z " fill="#0B0B0B" transform="translate(35,74)"/>
<path d="M0 0 C1.20628008 2.33214148 2.1654738 4.49642139 3 7 C2.0625 9.1875 2.0625 9.1875 1 11 C-1.78637633 6.8204355 -0.79562512 4.85331323 0 0 Z " fill="#393939" transform="translate(154,64)"/>
<path d="M0 0 C0.33 0.66 0.66 1.32 1 2 C0.0625 4.125 0.0625 4.125 -1 6 C-2.98 6 -4.96 6 -7 6 C-6.21625 5.38125 -5.4325 4.7625 -4.625 4.125 C-2.03162353 2.10141339 -2.03162353 2.10141339 0 0 Z " fill="#1A1A1A" transform="translate(23,80)"/>
<path d="M0 0 C0 2.31 0 4.62 0 7 C-0.66 6.34 -1.32 5.68 -2 5 C-2.66 5.66 -3.32 6.32 -4 7 C-3.625 4.0625 -3.625 4.0625 -3 1 C-1 0 -1 0 0 0 Z " fill="#272727" transform="translate(58,74)"/>
<path d="M0 0 C0.33 0 0.66 0 1 0 C0.67 2.64 0.34 5.28 0 8 C-0.66 7.67 -1.32 7.34 -2 7 C-2.125 4.625 -2.125 4.625 -2 2 C-1.34 1.34 -0.68 0.68 0 0 Z " fill="#050505" transform="translate(37,64)"/>
<path d="M0 0 C1.98 0 3.96 0 6 0 C6 1.98 6 3.96 6 6 C5.34 6 4.68 6 4 6 C4 4.68 4 3.36 4 2 C2.68 1.34 1.36 0.68 0 0 Z " fill="#242424" transform="translate(69,60)"/>
<path d="M0 0 C0.33 0 0.66 0 1 0 C0.67 2.64 0.34 5.28 0 8 C-0.66 7.67 -1.32 7.34 -2 7 C-1.125 1.125 -1.125 1.125 0 0 Z " fill="#030303" transform="translate(9,75)"/>
</svg>
